<svg width="104" height="327" viewBox="0 0 104 327" fill="none" xmlns="http://www.w3.org/2000/svg">
<path d="M0 18C0 8.05887 8.05888 0 18 0H85.8462C95.7873 0 103.846 8.05888 103.846 18V309C103.846 318.941 95.7873 327 85.8462 327H18C8.05888 327 0 318.941 0 309V18Z" fill="url(#paint0_linear_289_545)"/>
<path d="M49.8732 226.74C70.094 194.99 104 184.461 104 184.461V301.35C104 311.313 104 316.294 101.728 319.938C100.517 321.879 98.8787 323.517 96.9377 324.728C93.2941 327 88.3127 327 78.35 327H38.3522C38.3522 327 29.6523 258.49 49.8732 226.74Z" fill="#9DDAD4" fill-opacity="0.4"/>
<path d="M68.08 284.94H72V301.58H43.2V296.9H68.08V284.94ZM59.5 269.586C58.78 269.586 58.1133 269.693 57.5 269.906C56.8733 270.106 56.3333 270.406 55.88 270.806C55.4133 271.206 55.0533 271.706 54.8 272.306C54.5333 272.893 54.4 273.573 54.4 274.346C54.4 275.906 54.8467 277.133 55.74 278.026C56.6333 278.919 57.8867 279.486 59.5 279.726V269.586ZM62.14 279.846C63.3 279.793 64.3067 279.613 65.16 279.306C66 278.999 66.7 278.593 67.26 278.086C67.82 277.566 68.24 276.953 68.52 276.246C68.7867 275.526 68.92 274.726 68.92 273.846C68.92 273.006 68.8267 272.279 68.64 271.666C68.44 271.053 68.2267 270.519 68 270.066C67.76 269.613 67.5467 269.226 67.36 268.906C67.16 268.586 67.06 268.293 67.06 268.026C67.06 267.679 67.1933 267.413 67.46 267.226L69.04 266.006C69.64 266.513 70.1467 267.086 70.56 267.726C70.9733 268.366 71.3133 269.046 71.58 269.766C71.8333 270.486 72.0133 271.226 72.12 271.986C72.24 272.746 72.3 273.486 72.3 274.206C72.3 275.619 72.0667 276.933 71.6 278.146C71.12 279.346 70.42 280.393 69.5 281.286C68.58 282.166 67.44 282.859 66.08 283.366C64.72 283.859 63.1533 284.106 61.38 284.106C59.9667 284.106 58.6467 283.886 57.42 283.446C56.1933 282.993 55.1267 282.353 54.22 281.526C53.3133 280.686 52.6 279.673 52.08 278.486C51.5467 277.286 51.28 275.933 51.28 274.426C51.28 273.173 51.4867 272.013 51.9 270.946C52.3 269.879 52.8933 268.959 53.68 268.186C54.4667 267.413 55.4333 266.813 56.58 266.386C57.7133 265.946 59.0067 265.726 60.46 265.726C61.1267 265.726 61.5733 265.799 61.8 265.946C62.0267 266.093 62.14 266.359 62.14 266.746V279.846ZM63.08 250.816C63.1333 252.349 63.26 253.643 63.46 254.696C63.6467 255.749 63.8933 256.603 64.2 257.256C64.4933 257.909 64.8467 258.383 65.26 258.676C65.6733 258.956 66.1267 259.096 66.62 259.096C67.1 259.096 67.5133 259.023 67.86 258.876C68.1933 258.716 68.4733 258.503 68.7 258.236C68.9133 257.956 69.0733 257.636 69.18 257.276C69.2733 256.903 69.32 256.496 69.32 256.056C69.32 254.936 69.1133 253.976 68.7 253.176C68.2733 252.363 67.66 251.576 66.86 250.816H63.08ZM54.44 262.216C52.2933 259.909 51.22 257.163 51.22 253.976C51.22 252.803 51.4133 251.763 51.8 250.856C52.1733 249.936 52.7067 249.169 53.4 248.556C54.0933 247.929 54.92 247.456 55.88 247.136C56.8267 246.803 57.88 246.636 59.04 246.636H72V248.556C72 248.969 71.94 249.283 71.82 249.496C71.6867 249.709 71.4267 249.889 71.04 250.036L69.38 250.456C69.8467 250.976 70.2667 251.489 70.64 251.996C71 252.503 71.3067 253.029 71.56 253.576C71.8133 254.109 72 254.689 72.12 255.316C72.2533 255.929 72.32 256.609 72.32 257.356C72.32 258.183 72.2067 258.956 71.98 259.676C71.7533 260.383 71.4133 260.996 70.96 261.516C70.4933 262.036 69.92 262.449 69.24 262.756C68.56 263.049 67.76 263.196 66.84 263.196C66.0533 263.196 65.2867 262.989 64.54 262.576C63.7933 262.149 63.1267 261.456 62.54 260.496C61.94 259.523 61.4467 258.249 61.06 256.676C60.6733 255.089 60.4533 253.136 60.4 250.816H59.04C57.5733 250.816 56.48 251.129 55.76 251.756C55.04 252.383 54.68 253.303 54.68 254.516C54.68 255.343 54.7867 256.036 55 256.596C55.2 257.156 55.42 257.643 55.66 258.056C55.9 258.469 56.1267 258.836 56.34 259.156C56.54 259.476 56.64 259.816 56.64 260.176C56.64 260.469 56.5667 260.723 56.42 260.936C56.26 261.136 56.0667 261.303 55.84 261.436L54.44 262.216ZM56.62 228.579C55.8467 229.179 55.3067 229.839 55 230.559C54.6933 231.279 54.54 232.059 54.54 232.899C54.54 234.579 55.16 235.892 56.4 236.839C57.6267 237.785 59.4467 238.259 61.86 238.259C63.1133 238.259 64.1867 238.152 65.08 237.939C65.96 237.725 66.68 237.419 67.24 237.019C67.8 236.619 68.2067 236.132 68.46 235.559C68.7133 234.985 68.84 234.339 68.84 233.619C68.84 232.525 68.6067 231.585 68.14 230.799C67.66 229.999 66.9867 229.259 66.12 228.579H56.62ZM42.4 224.279H72V226.879C72 227.452 71.7267 227.819 71.18 227.979L68.96 228.359C69.96 229.212 70.7667 230.185 71.38 231.279C71.9933 232.359 72.3 233.619 72.3 235.059C72.3 236.205 72.0733 237.245 71.62 238.179C71.1533 239.112 70.48 239.912 69.6 240.579C68.72 241.245 67.6333 241.765 66.34 242.139C65.0333 242.499 63.54 242.679 61.86 242.679C60.34 242.679 58.9333 242.479 57.64 242.079C56.3467 241.665 55.2267 241.079 54.28 240.319C53.32 239.559 52.5733 238.639 52.04 237.559C51.4933 236.465 51.22 235.245 51.22 233.899C51.22 232.699 51.4133 231.679 51.8 230.839C52.1733 229.999 52.7 229.245 53.38 228.579H42.4V224.279ZM57.82 184.68H69.22C71.2867 187.546 72.32 190.88 72.32 194.68C72.32 197.013 71.96 199.126 71.24 201.02C70.5067 202.9 69.4933 204.506 68.2 205.84C66.8933 207.173 65.34 208.2 63.54 208.92C61.74 209.64 59.76 210 57.6 210C55.4267 210 53.44 209.653 51.64 208.96C49.8267 208.266 48.2733 207.273 46.98 205.98C45.6733 204.686 44.6667 203.126 43.96 201.3C43.24 199.473 42.88 197.42 42.88 195.14C42.88 193.98 42.9733 192.906 43.16 191.92C43.3333 190.92 43.58 189.993 43.9 189.14C44.22 188.286 44.6067 187.5 45.06 186.78C45.5133 186.06 46.02 185.4 46.58 184.8L48.72 186.14C49.0533 186.353 49.26 186.626 49.34 186.96C49.42 187.293 49.34 187.653 49.1 188.04C48.8733 188.426 48.6333 188.84 48.38 189.28C48.1267 189.706 47.8933 190.2 47.68 190.76C47.4533 191.32 47.2733 191.966 47.14 192.7C46.9933 193.433 46.92 194.3 46.92 195.3C46.92 196.82 47.1733 198.193 47.68 199.42C48.1733 200.633 48.8867 201.673 49.82 202.54C50.74 203.406 51.86 204.073 53.18 204.54C54.5 205.006 55.9733 205.24 57.6 205.24C59.32 205.24 60.86 204.993 62.22 204.5C63.5667 204.006 64.7133 203.306 65.66 202.4C66.5933 201.493 67.3067 200.4 67.8 199.12C68.2933 197.826 68.54 196.386 68.54 194.8C68.54 193.613 68.4133 192.56 68.16 191.64C67.9067 190.706 67.5533 189.793 67.1 188.9H61.38V192.92C61.38 193.226 61.3 193.466 61.14 193.64C60.9667 193.813 60.7467 193.9 60.48 193.9H57.82V184.68ZM59.5 166.812C58.78 166.812 58.1133 166.919 57.5 167.132C56.8733 167.332 56.3333 167.632 55.88 168.032C55.4133 168.432 55.0533 168.932 54.8 169.532C54.5333 170.119 54.4 170.799 54.4 171.572C54.4 173.132 54.8467 174.359 55.74 175.252C56.6333 176.146 57.8867 176.712 59.5 176.952V166.812ZM62.14 177.072C63.3 177.019 64.3067 176.839 65.16 176.532C66 176.226 66.7 175.819 67.26 175.312C67.82 174.792 68.24 174.179 68.52 173.472C68.7867 172.752 68.92 171.952 68.92 171.072C68.92 170.232 68.8267 169.506 68.64 168.892C68.44 168.279 68.2267 167.746 68 167.292C67.76 166.839 67.5467 166.452 67.36 166.132C67.16 165.812 67.06 165.519 67.06 165.252C67.06 164.906 67.1933 164.639 67.46 164.452L69.04 163.232C69.64 163.739 70.1467 164.312 70.56 164.952C70.9733 165.592 71.3133 166.272 71.58 166.992C71.8333 167.712 72.0133 168.452 72.12 169.212C72.24 169.972 72.3 170.712 72.3 171.432C72.3 172.846 72.0667 174.159 71.6 175.372C71.12 176.572 70.42 177.619 69.5 178.512C68.58 179.392 67.44 180.086 66.08 180.592C64.72 181.086 63.1533 181.332 61.38 181.332C59.9667 181.332 58.6467 181.112 57.42 180.672C56.1933 180.219 55.1267 179.579 54.22 178.752C53.3133 177.912 52.6 176.899 52.08 175.712C51.5467 174.512 51.28 173.159 51.28 171.652C51.28 170.399 51.4867 169.239 51.9 168.172C52.3 167.106 52.8933 166.186 53.68 165.412C54.4667 164.639 55.4333 164.039 56.58 163.612C57.7133 163.172 59.0067 162.952 60.46 162.952C61.1267 162.952 61.5733 163.026 61.8 163.172C62.0267 163.319 62.14 163.586 62.14 163.972V177.072ZM54.3 154.922C53.8467 154.482 53.44 154.029 53.08 153.562C52.7067 153.082 52.3867 152.576 52.12 152.042C51.8533 151.509 51.6467 150.942 51.5 150.342C51.3533 149.742 51.28 149.089 51.28 148.382C51.28 147.262 51.4667 146.282 51.84 145.442C52.2133 144.589 52.74 143.876 53.42 143.302C54.1 142.716 54.92 142.276 55.88 141.982C56.8267 141.689 57.8733 141.542 59.02 141.542H72V145.822H59.02C57.6467 145.822 56.58 146.142 55.82 146.782C55.06 147.409 54.68 148.369 54.68 149.662C54.68 150.622 54.9 151.516 55.34 152.342C55.78 153.156 56.38 153.922 57.14 154.642H72V158.942H51.6V156.342C51.6 155.756 51.8733 155.382 52.42 155.222L54.3 154.922ZM59.5 123.141C58.78 123.141 58.1133 123.247 57.5 123.461C56.8733 123.661 56.3333 123.961 55.88 124.361C55.4133 124.761 55.0533 125.261 54.8 125.861C54.5333 126.447 54.4 127.127 54.4 127.901C54.4 129.461 54.8467 130.687 55.74 131.581C56.6333 132.474 57.8867 133.041 59.5 133.281V123.141ZM62.14 133.401C63.3 133.347 64.3067 133.167 65.16 132.861C66 132.554 66.7 132.147 67.26 131.641C67.82 131.121 68.24 130.507 68.52 129.801C68.7867 129.081 68.92 128.281 68.92 127.401C68.92 126.561 68.8267 125.834 68.64 125.221C68.44 124.607 68.2267 124.074 68 123.621C67.76 123.167 67.5467 122.781 67.36 122.461C67.16 122.141 67.06 121.847 67.06 121.581C67.06 121.234 67.1933 120.967 67.46 120.781L69.04 119.561C69.64 120.067 70.1467 120.641 70.56 121.281C70.9733 121.921 71.3133 122.601 71.58 123.321C71.8333 124.041 72.0133 124.781 72.12 125.541C72.24 126.301 72.3 127.041 72.3 127.761C72.3 129.174 72.0667 130.487 71.6 131.701C71.12 132.901 70.42 133.947 69.5 134.841C68.58 135.721 67.44 136.414 66.08 136.921C64.72 137.414 63.1533 137.661 61.38 137.661C59.9667 137.661 58.6467 137.441 57.42 137.001C56.1933 136.547 55.1267 135.907 54.22 135.081C53.3133 134.241 52.6 133.227 52.08 132.041C51.5467 130.841 51.28 129.487 51.28 127.981C51.28 126.727 51.4867 125.567 51.9 124.501C52.3 123.434 52.8933 122.514 53.68 121.741C54.4667 120.967 55.4333 120.367 56.58 119.941C57.7133 119.501 59.0067 119.281 60.46 119.281C61.1267 119.281 61.5733 119.354 61.8 119.501C62.0267 119.647 62.14 119.914 62.14 120.301V133.401ZM55.38 111.211C54.0867 110.571 53.0733 109.797 52.34 108.891C51.5933 107.984 51.22 106.897 51.22 105.631C51.22 105.191 51.2733 104.777 51.38 104.391C51.4733 104.004 51.62 103.657 51.82 103.351L55.06 103.651C55.2867 103.704 55.4467 103.791 55.54 103.911C55.62 104.017 55.66 104.164 55.66 104.351C55.66 104.551 55.6267 104.837 55.56 105.211C55.48 105.584 55.44 105.977 55.44 106.391C55.44 106.991 55.5267 107.524 55.7 107.991C55.8733 108.444 56.1267 108.857 56.46 109.231C56.7933 109.591 57.2 109.911 57.68 110.191C58.16 110.471 58.7067 110.731 59.32 110.971H72V115.271H51.6V112.771C51.6 112.317 51.6867 112.004 51.86 111.831C52.02 111.657 52.3067 111.537 52.72 111.471L55.38 111.211ZM63.08 89.9175C63.1333 91.4508 63.26 92.7442 63.46 93.7975C63.6467 94.8508 63.8933 95.7042 64.2 96.3575C64.4933 97.0108 64.8467 97.4842 65.26 97.7775C65.6733 98.0575 66.1267 98.1975 66.62 98.1975C67.1 98.1975 67.5133 98.1242 67.86 97.9775C68.1933 97.8175 68.4733 97.6042 68.7 97.3375C68.9133 97.0575 69.0733 96.7375 69.18 96.3775C69.2733 96.0042 69.32 95.5975 69.32 95.1575C69.32 94.0375 69.1133 93.0775 68.7 92.2775C68.2733 91.4642 67.66 90.6775 66.86 89.9175H63.08ZM54.44 101.317C52.2933 99.0108 51.22 96.2642 51.22 93.0775C51.22 91.9042 51.4133 90.8642 51.8 89.9575C52.1733 89.0375 52.7067 88.2708 53.4 87.6575C54.0933 87.0308 54.92 86.5575 55.88 86.2375C56.8267 85.9042 57.88 85.7375 59.04 85.7375H72V87.6575C72 88.0708 71.94 88.3842 71.82 88.5975C71.6867 88.8108 71.4267 88.9908 71.04 89.1375L69.38 89.5575C69.8467 90.0775 70.2667 90.5908 70.64 91.0975C71 91.6042 71.3067 92.1308 71.56 92.6775C71.8133 93.2108 72 93.7908 72.12 94.4175C72.2533 95.0308 72.32 95.7108 72.32 96.4575C72.32 97.2842 72.2067 98.0575 71.98 98.7775C71.7533 99.4842 71.4133 100.097 70.96 100.617C70.4933 101.137 69.92 101.551 69.24 101.857C68.56 102.151 67.76 102.297 66.84 102.297C66.0533 102.297 65.2867 102.091 64.54 101.677C63.7933 101.251 63.1267 100.557 62.54 99.5975C61.94 98.6242 61.4467 97.3508 61.06 95.7775C60.6733 94.1908 60.4533 92.2375 60.4 89.9175H59.04C57.5733 89.9175 56.48 90.2308 55.76 90.8575C55.04 91.4842 54.68 92.4042 54.68 93.6175C54.68 94.4442 54.7867 95.1375 55 95.6975C55.2 96.2575 55.42 96.7442 55.66 97.1575C55.9 97.5708 56.1267 97.9375 56.34 98.2575C56.54 98.5775 56.64 98.9175 56.64 99.2775C56.64 99.5708 56.5667 99.8242 56.42 100.037C56.26 100.237 56.0667 100.404 55.84 100.537L54.44 101.317ZM72.32 74.4337C72.32 76.1271 71.8467 77.4337 70.9 78.3537C69.94 79.2604 68.5933 79.7137 66.86 79.7137H54.98V81.9537C54.98 82.1937 54.9067 82.4004 54.76 82.5737C54.6 82.7471 54.3667 82.8337 54.06 82.8337H52.32L51.84 79.5337L45.94 78.5938C45.7133 78.5271 45.5333 78.4137 45.4 78.2537C45.2533 78.0937 45.18 77.8804 45.18 77.6137V75.4137H51.88V69.7537H54.98V75.4137H66.56C67.2933 75.4137 67.8533 75.2337 68.24 74.8737C68.6267 74.5137 68.82 74.0337 68.82 73.4337C68.82 73.1004 68.78 72.8137 68.7 72.5738C68.6067 72.3337 68.5133 72.1271 68.42 71.9537C68.3133 71.7804 68.22 71.6337 68.14 71.5137C68.0467 71.3804 68 71.2537 68 71.1337C68 70.8937 68.1333 70.7004 68.4 70.5537L70.5 69.2737C71.0867 69.9404 71.54 70.7271 71.86 71.6337C72.1667 72.5404 72.32 73.4737 72.32 74.4337ZM59.5 53.1406C58.78 53.1406 58.1133 53.2473 57.5 53.4606C56.8733 53.6606 56.3333 53.9606 55.88 54.3606C55.4133 54.7606 55.0533 55.2606 54.8 55.8606C54.5333 56.4473 54.4 57.1273 54.4 57.9006C54.4 59.4606 54.8467 60.6873 55.74 61.5806C56.6333 62.474 57.8867 63.0406 59.5 63.2806V53.1406ZM62.14 63.4006C63.3 63.3473 64.3067 63.1673 65.16 62.8606C66 62.554 66.7 62.1473 67.26 61.6406C67.82 61.1206 68.24 60.5073 68.52 59.8006C68.7867 59.0806 68.92 58.2806 68.92 57.4006C68.92 56.5606 68.8267 55.834 68.64 55.2206C68.44 54.6073 68.2267 54.074 68 53.6206C67.76 53.1673 67.5467 52.7806 67.36 52.4606C67.16 52.1406 67.06 51.8473 67.06 51.5806C67.06 51.234 67.1933 50.9673 67.46 50.7806L69.04 49.5606C69.64 50.0673 70.1467 50.6406 70.56 51.2806C70.9733 51.9206 71.3133 52.6006 71.58 53.3206C71.8333 54.0406 72.0133 54.7806 72.12 55.5406C72.24 56.3006 72.3 57.0406 72.3 57.7606C72.3 59.174 72.0667 60.4873 71.6 61.7006C71.12 62.9006 70.42 63.9473 69.5 64.8406C68.58 65.7206 67.44 66.414 66.08 66.9206C64.72 67.414 63.1533 67.6606 61.38 67.6606C59.9667 67.6606 58.6467 67.4406 57.42 67.0006C56.1933 66.5473 55.1267 65.9073 54.22 65.0806C53.3133 64.2406 52.6 63.2273 52.08 62.0406C51.5467 60.8406 51.28 59.4873 51.28 57.9806C51.28 56.7273 51.4867 55.5673 51.9 54.5006C52.3 53.434 52.8933 52.514 53.68 51.7406C54.4667 50.9673 55.4333 50.3673 56.58 49.9406C57.7133 49.5006 59.0067 49.2806 60.46 49.2806C61.1267 49.2806 61.5733 49.354 61.8 49.5006C62.0267 49.6473 62.14 49.914 62.14 50.3006V63.4006ZM56.62 32.2506C55.8467 32.8506 55.3067 33.5106 55 34.2306C54.6933 34.9506 54.54 35.7306 54.54 36.5706C54.54 38.2506 55.16 39.564 56.4 40.5106C57.6267 41.4573 59.4467 41.9306 61.86 41.9306C63.1133 41.9306 64.1867 41.824 65.08 41.6106C65.96 41.3973 66.68 41.0906 67.24 40.6906C67.8 40.2906 68.2067 39.804 68.46 39.2306C68.7133 38.6573 68.84 38.0106 68.84 37.2906C68.84 36.1973 68.6067 35.2573 68.14 34.4706C67.66 33.6706 66.9867 32.9306 66.12 32.2506H56.62ZM42.4 27.9506H72V30.5506C72 31.124 71.7267 31.4906 71.18 31.6506L68.96 32.0306C69.96 32.884 70.7667 33.8573 71.38 34.9506C71.9933 36.0306 72.3 37.2906 72.3 38.7306C72.3 39.8773 72.0733 40.9173 71.62 41.8506C71.1533 42.784 70.48 43.584 69.6 44.2506C68.72 44.9173 67.6333 45.4373 66.34 45.8106C65.0333 46.1706 63.54 46.3506 61.86 46.3506C60.34 46.3506 58.9333 46.1506 57.64 45.7506C56.3467 45.3373 55.2267 44.7506 54.28 43.9906C53.32 43.2306 52.5733 42.3106 52.04 41.2306C51.4933 40.1373 51.22 38.9173 51.22 37.5706C51.22 36.3706 51.4133 35.3506 51.8 34.5106C52.1733 33.6706 52.7 32.9173 53.38 32.2506H42.4V27.9506Z" fill="#A7DED8"/>
<defs>
<linearGradient id="paint0_linear_289_545" x1="52.1015" y1="-67.3235" x2="41.5293" y2="326.721" gradientUnits="userSpaceOnUse">
<stop offset="1" stop-color="#19988B" stop-opacity="0.69"/>
</linearGradient>
</defs>
</svg>
