<svg width="18" height="24" viewBox="0 0 18 24" fill="none" xmlns="http://www.w3.org/2000/svg">
<path d="M6.36064 5.33333C6.36064 4.97971 6.49628 4.64057 6.73774 4.39052C6.97919 4.14048 7.30667 4 7.64814 4C7.9896 4 8.31708 4.14048 8.55854 4.39052C8.79999 4.64057 8.93564 4.97971 8.93564 5.33333V11.2933L10.4935 11.4667L16.8538 14.3867C17.5361 14.7067 17.9481 15.4133 17.9481 16.1867V22C17.9095 23.0933 17.0726 23.96 16.0169 24H7.64814C7.15889 24 6.69539 23.8 6.36064 23.4267L0.0518799 17.8267L1.00463 16.8C1.24926 16.52 1.59688 16.3733 1.95738 16.3733H2.24063L6.36064 18.6667V5.33333ZM7.64814 0C9.014 0 10.3239 0.561903 11.2897 1.5621C12.2556 2.56229 12.7981 3.91885 12.7981 5.33333C12.7981 7.33333 11.7681 9.02667 10.2231 9.94667V8.32C11.0085 7.58667 11.5106 6.52 11.5106 5.33333C11.5106 4.27247 11.1037 3.25505 10.3793 2.50491C9.65498 1.75476 8.67254 1.33333 7.64814 1.33333C6.62374 1.33333 5.64129 1.75476 4.91693 2.50491C4.19257 3.25505 3.78563 4.27247 3.78563 5.33333C3.78563 6.52 4.28776 7.58667 5.07313 8.32V9.94667C3.52813 9.02667 2.49813 7.33333 2.49813 5.33333C2.49813 3.91885 3.04072 2.56229 4.00653 1.5621C4.97235 0.561903 6.28227 0 7.64814 0Z" fill="#C37C5A"/>
</svg>
