<svg width="24" height="24" viewBox="0 0 24 24" fill="none" xmlns="http://www.w3.org/2000/svg">
<path d="M23.883 12.8009L22.4684 10.5545L23.3075 8.03342C23.3634 7.86672 23.36 7.68565 23.298 7.52114C23.236 7.35664 23.1192 7.21891 22.9676 7.13149L20.6785 5.80298L20.2576 3.17782C20.2292 3.00425 20.1424 2.84581 20.0116 2.72918C19.8808 2.61255 19.7141 2.54484 19.5396 2.53747L16.8994 2.4334L15.3153 0.305149C15.2108 0.164165 15.0609 0.064094 14.8912 0.0220284C14.7215 -0.0200372 14.5426 -0.00148697 14.385 0.0745103L12 1.21645L9.61409 0.0735727C9.45621 -0.00142604 9.27749 -0.0193439 9.10802 0.0228385C8.93856 0.0650209 8.78872 0.164725 8.68375 0.305149L7.09966 2.4334L4.45951 2.53747C4.28493 2.54396 4.118 2.61126 3.98722 2.72788C3.85644 2.84449 3.76992 3.00319 3.74243 3.17688L3.3215 5.80204L1.03244 7.13056C0.880603 7.21783 0.763597 7.3555 0.701426 7.52001C0.639255 7.68453 0.635779 7.86567 0.691593 8.03248L1.53067 10.5536L0.117 12.8009C0.023746 12.9496 -0.0156036 13.1263 0.00560858 13.3009C0.0268208 13.4755 0.107292 13.6373 0.233409 13.7591L2.13972 15.5995L1.92553 18.249C1.91128 18.4244 1.95763 18.5992 2.05673 18.7441C2.15583 18.889 2.30161 18.995 2.46939 19.0441L5.0071 19.7801L6.03988 22.228C6.10768 22.3903 6.22936 22.5237 6.38411 22.6057C6.53886 22.6876 6.71706 22.7128 6.88826 22.6771L9.47719 22.1427L11.5204 23.8275C11.6592 23.9409 11.8296 24 12 24C12.1704 24 12.3399 23.9409 12.4796 23.8275L14.5228 22.1427L17.1117 22.6771C17.4628 22.7521 17.8195 22.5618 17.9601 22.228L18.9929 19.7801L21.5306 19.0441C21.6988 18.9956 21.845 18.8898 21.9442 18.7447C22.0434 18.5997 22.0894 18.4245 22.0745 18.249L21.8603 15.5995L23.7666 13.7591C23.8927 13.6373 23.9732 13.4755 23.9944 13.3009C24.0156 13.1263 23.9763 12.9496 23.883 12.8009ZM17.4731 9.13411L12.1732 17.1277C11.973 17.4259 11.6629 17.6256 11.3546 17.6256C11.0464 17.6256 10.7037 17.4521 10.4848 17.2308L6.59398 13.2509C6.46601 13.1195 6.39432 12.9428 6.39432 12.7587C6.39432 12.5746 6.46601 12.3979 6.59398 12.2665L7.55412 11.2821C7.61704 11.2184 7.69184 11.1678 7.77423 11.1333C7.85661 11.0988 7.94496 11.0811 8.03419 11.0811C8.12342 11.0811 8.21176 11.0988 8.29415 11.1333C8.37654 11.1678 8.45134 11.2184 8.51426 11.2821L11.0464 13.8716L15.2222 7.57308C15.2717 7.49797 15.3355 7.43354 15.41 7.38354C15.4845 7.33355 15.5682 7.29899 15.6561 7.28188C15.744 7.26477 15.8344 7.26546 15.922 7.28391C16.0097 7.30236 16.0928 7.33819 16.1665 7.38932L17.2924 8.16843C17.6025 8.38407 17.6826 8.81816 17.4731 9.13411Z" fill="#19988B"/>
</svg>
