<svg width="19" height="25" viewBox="0 0 19 25" fill="none" xmlns="http://www.w3.org/2000/svg">
<path d="M2.375 24.5C1.72187 24.5 1.16296 24.2652 0.69825 23.7956C0.233541 23.326 0.000791667 22.7608 0 22.1V2.9C0 2.24 0.23275 1.6752 0.69825 1.2056C1.16375 0.736 1.72267 0.5008 2.375 0.5H16.625C17.2781 0.5 17.8374 0.7352 18.3029 1.2056C18.7684 1.676 19.0008 2.2408 19 2.9V22.1C19 22.76 18.7676 23.3252 18.3029 23.7956C17.8382 24.266 17.2789 24.5008 16.625 24.5H2.375ZM3.5625 19.7H15.4375L11.3406 14.3L8.60937 17.9L6.76875 15.5L3.5625 19.7Z" fill="#606060"/>
</svg>
