<svg width="28" height="29" viewBox="0 0 28 29" fill="none" xmlns="http://www.w3.org/2000/svg">
<path d="M3.5 5.75C3.5 4.7835 4.2835 4 5.25 4H7.58333C8.54984 4 9.33333 4.7835 9.33333 5.75V8.08333C9.33333 9.04984 8.54984 9.83333 7.58333 9.83333H5.25C4.2835 9.83333 3.5 9.04984 3.5 8.08333V5.75Z" stroke="#606060" stroke-width="1.5"/>
<path d="M3.5 20.9166C3.5 19.9502 4.2835 19.1666 5.25 19.1666H7.58333C8.54984 19.1666 9.33333 19.9502 9.33333 20.9166V23.25C9.33333 24.2164 8.54984 25 7.58333 25H5.25C4.2835 25 3.5 24.2164 3.5 23.25V20.9166Z" stroke="#606060" stroke-width="1.5"/>
<path d="M9.33336 22.0833H24.5M18.6667 6.91663H9.33336M19.0441 9.45586L8.92346 19.5765" stroke="#606060" stroke-width="1.5" stroke-linecap="round" stroke-linejoin="round"/>
<path d="M18.6666 5.75C18.6666 4.7835 19.4502 4 20.4166 4H22.75C23.7164 4 24.5 4.7835 24.5 5.75V8.08333C24.5 9.04984 23.7164 9.83333 22.75 9.83333H20.4166C19.4502 9.83333 18.6666 9.04984 18.6666 8.08333V5.75Z" stroke="#606060" stroke-width="1.5"/>
<path d="M21 25L22.6197 23.8959C23.8733 23.0415 24.5 22.6142 24.5 22.0833C24.5 21.5523 23.8733 21.1251 22.6197 20.2706L21 19.1666" stroke="#606060" stroke-width="1.5" stroke-linecap="round" stroke-linejoin="round"/>
</svg>
