<svg width="26" height="26" viewBox="0 0 26 26" fill="none" xmlns="http://www.w3.org/2000/svg">
<path d="M24.9999 5.80005H15.3999" stroke="#009182" stroke-width="1.5" stroke-linecap="round" stroke-linejoin="round"/>
<path d="M1 5.8C1 4.11984 1 3.27976 1.32698 2.63802C1.6146 2.07354 2.07354 1.6146 2.63802 1.32698C3.27976 1 4.11984 1 5.8 1C7.48016 1 8.32024 1 8.96198 1.32698C9.52646 1.6146 9.9854 2.07354 10.273 2.63802C10.6 3.27976 10.6 4.11984 10.6 5.8C10.6 7.48016 10.6 8.32024 10.273 8.96198C9.9854 9.52646 9.52646 9.9854 8.96198 10.273C8.32024 10.6 7.48016 10.6 5.8 10.6C4.11984 10.6 3.27976 10.6 2.63802 10.273C2.07354 9.9854 1.6146 9.52646 1.32698 8.96198C1 8.32024 1 7.48016 1 5.8Z" stroke="#009182" stroke-width="1.5"/>
<path d="M1 20.2C1 18.5199 1 17.6798 1.32698 17.038C1.6146 16.4735 2.07354 16.0147 2.63802 15.727C3.27976 15.4 4.11984 15.4 5.8 15.4C7.48016 15.4 8.32024 15.4 8.96198 15.727C9.52646 16.0147 9.9854 16.4735 10.273 17.038C10.6 17.6798 10.6 18.5199 10.6 20.2C10.6 21.8801 10.6 22.7203 10.273 23.362C9.9854 23.9265 9.52646 24.3854 8.96198 24.673C8.32024 25 7.48016 25 5.8 25C4.11984 25 3.27976 25 2.63802 24.673C2.07354 24.3854 1.6146 23.9265 1.32698 23.362C1 22.7203 1 21.8801 1 20.2Z" stroke="#009182" stroke-width="1.5"/>
<path d="M15.3999 20.2C15.3999 18.5199 15.3999 17.6798 15.7269 17.038C16.0145 16.4735 16.4734 16.0147 17.0379 15.727C17.6797 15.4 18.5198 15.4 20.1999 15.4C21.88 15.4 22.7201 15.4 23.3619 15.727C23.9264 16.0147 24.3853 16.4735 24.6729 17.038C24.9999 17.6798 24.9999 18.5199 24.9999 20.2C24.9999 21.8801 24.9999 22.7203 24.6729 23.362C24.3853 23.9265 23.9264 24.3854 23.3619 24.673C22.7201 25 21.88 25 20.1999 25C18.5198 25 17.6797 25 17.0379 24.673C16.4734 24.3854 16.0145 23.9265 15.7269 23.362C15.3999 22.7203 15.3999 21.8801 15.3999 20.2Z" stroke="#009182" stroke-width="1.5"/>
</svg>
