<svg width="26" height="26" viewBox="0 0 26 26" fill="none" xmlns="http://www.w3.org/2000/svg">
<path d="M2.16663 7.58342H5.27041C6.05768 7.58342 6.8127 7.19375 7.36939 6.50014C8.16443 5.50954 9.34041 5.16364 10.4071 5.60665L11.9166 6.2336M2.16663 17.2974H3.92236C5.17848 17.2974 5.80653 17.2974 6.40042 17.4648C6.42929 17.4729 6.45808 17.4814 6.48676 17.4901C7.07693 17.6694 7.5995 18.0061 8.64465 18.6797C10.6902 19.998 11.713 20.6572 12.8274 20.5769C12.8799 20.5731 12.9324 20.568 12.9847 20.5619C14.0937 20.4293 14.9629 19.589 16.7013 17.9084L18.4166 16.2501" stroke="#606060" stroke-width="1.5" stroke-linecap="round"/>
<path d="M23.8333 7.83674H21.1068C19.9522 7.83674 19.137 7.20932 18.3087 6.37288C17.7722 5.83109 17.0875 5.51178 16.3679 5.46781C15.5632 5.41865 14.6307 5.34942 13.8493 5.5641C12.9795 5.80302 12.4053 6.45743 11.7977 7.14137L10.23 8.90629C9.58999 9.62681 9.58999 10.795 10.23 11.5156C10.7824 12.1374 11.6479 12.234 12.2979 11.746C12.7657 11.395 13.2972 10.8281 13.8484 10.6495C14.4687 10.4486 14.8535 10.9 15.205 11.375L17.7186 14.7707C18.6514 16.0308 19.1178 16.661 19.7555 16.9972C20.3931 17.3334 21.1216 17.3334 22.5788 17.3334H23.8333" stroke="#606060" stroke-width="1.5" stroke-linecap="round"/>
</svg>
