<svg width="19" height="16" viewBox="0 0 19 16" fill="none" xmlns="http://www.w3.org/2000/svg">
<path d="M4.60254 2C4.45335 2 4.31028 2.05268 4.20479 2.14645C4.0993 2.24021 4.04004 2.36739 4.04004 2.5L4.04004 7.5C4.04004 7.63261 4.0993 7.75979 4.20479 7.85355C4.31028 7.94732 4.45335 8 4.60254 8L10.2275 8C10.3767 8 10.5198 7.94732 10.6253 7.85355C10.7308 7.75979 10.79 7.63261 10.79 7.5L10.79 2.5C10.79 2.36739 10.7308 2.24021 10.6253 2.14645C10.5198 2.05268 10.3767 2 10.2275 2L4.60254 2ZM5.16504 14L5.16504 9L7.18554 9C7.74804 9 8.21191 9.09767 8.57716 9.293C8.94241 9.48833 9.21429 9.77167 9.39279 10.143C9.57429 10.5143 9.66504 10.9623 9.66504 11.487C9.66504 12.015 9.57429 12.4667 9.39279 12.842C9.22939 13.2001 8.94066 13.502 8.56929 13.703C8.20479 13.901 7.74354 14 7.18554 14L5.16504 14ZM7.03929 9.806L6.26079 9.806L6.26079 13.191L7.03929 13.191C7.29654 13.191 7.51966 13.1567 7.70866 13.088C7.89164 13.0211 8.05152 12.9124 8.17216 12.773C8.29366 12.631 8.38404 12.455 8.44329 12.245C8.50629 12.0357 8.53741 11.789 8.53666 11.505C8.53666 11.1283 8.48266 10.815 8.37466 10.565C8.28723 10.332 8.11455 10.1317 7.88416 9.996C7.66441 9.86933 7.38204 9.806 7.03929 9.806Z" fill="#19988B"/>
<path d="M4.04004 -3.98305e-09C3.4433 -3.2788e-09 2.87101 0.210714 2.44905 0.585786C2.02709 0.960859 1.79004 1.46957 1.79004 2L1.79004 15L1.22754 15C1.07835 15 0.935281 15.0527 0.829792 15.1464C0.724302 15.2402 0.665039 15.3674 0.665039 15.5C0.665039 15.6326 0.724302 15.7598 0.829792 15.8536C0.935281 15.9473 1.07835 16 1.22754 16L13.6025 16C13.7517 16 13.8948 15.9473 14.0003 15.8536C14.1058 15.7598 14.165 15.6326 14.165 15.5C14.165 15.3674 14.1058 15.2402 14.0003 15.1464C13.8948 15.0527 13.7517 15 13.6025 15L13.04 15L13.04 11C13.3384 11 13.6246 11.1054 13.8355 11.2929C14.0465 11.4804 14.165 11.7348 14.165 12L14.165 12.5C14.165 12.8978 14.3428 13.2794 14.6593 13.5607C14.9758 13.842 15.405 14 15.8525 14C16.3001 14 16.7293 13.842 17.0458 13.5607C17.3622 13.2794 17.54 12.8978 17.54 12.5L17.54 8L18.1025 8C18.2517 8 18.3948 7.94732 18.5003 7.85355C18.6058 7.75979 18.665 7.63261 18.665 7.5L18.665 4.324C18.665 3.708 18.665 2.898 18.3343 2.243C18.1505 1.86513 17.8381 1.54794 17.441 1.336C17.0158 1.11133 16.4863 0.999333 15.8525 1C15.7034 1 15.5603 1.05268 15.4548 1.14645C15.3493 1.24021 15.29 1.36739 15.29 1.5C15.29 1.63261 15.3493 1.75979 15.4548 1.85355C15.5603 1.94732 15.7034 2 15.8525 2C16.343 2 16.658 2.086 16.865 2.195C17.0639 2.30183 17.2192 2.46228 17.3083 2.653C17.4737 2.981 17.522 3.399 17.5344 3.875L15.8525 3.875C15.7034 3.875 15.5603 3.92768 15.4548 4.02145C15.3493 4.11521 15.29 4.24239 15.29 4.375L15.29 7.5C15.29 7.63261 15.3493 7.75979 15.4548 7.85355C15.5603 7.94732 15.7034 8 15.8525 8L16.415 8L16.415 12.5C16.415 12.6326 16.3558 12.7598 16.2503 12.8536C16.1448 12.9473 16.0017 13 15.8525 13C15.7034 13 15.5603 12.9473 15.4548 12.8536C15.3493 12.7598 15.29 12.6326 15.29 12.5L15.29 12C15.29 11.4696 15.053 10.9609 14.631 10.5858C14.2091 10.2107 13.6368 10 13.04 10L13.04 2C13.04 1.46957 12.803 0.960859 12.381 0.585786C11.9591 0.210714 11.3868 -1.26534e-08 10.79 -1.19491e-08L4.04004 -3.98305e-09ZM11.915 2L11.915 15L2.91504 15L2.91504 2C2.91504 1.73478 3.03357 1.48043 3.24454 1.29289C3.45552 1.10536 3.74167 1 4.04004 1L10.79 1C11.0884 1 11.3746 1.10536 11.5855 1.29289C11.7965 1.48043 11.915 1.73478 11.915 2Z" fill="#19988B"/>
</svg>
