<svg width="26" height="26" viewBox="0 0 26 26" fill="none" xmlns="http://www.w3.org/2000/svg">
<path d="M18.8999 3.14012L20.2199 1.82013C21.3135 0.726623 23.0864 0.726623 24.1799 1.82013C25.2734 2.91365 25.2734 4.68657 24.1799 5.78009L22.8599 7.10008M18.8999 3.14012L10.0208 12.0192C9.34412 12.696 8.86408 13.5437 8.63198 14.4721L7.66669 18.3333L11.5279 17.368C12.4563 17.136 13.304 16.6559 13.9808 15.9792L22.8599 7.10008M18.8999 3.14012L22.8599 7.10008" stroke="#19988B" stroke-width="2" stroke-linejoin="round"/>
<path d="M22.3332 15C22.3332 19.3833 22.3332 21.5749 21.1227 23.0501C20.9011 23.3201 20.6535 23.5677 20.3834 23.7893C18.9083 25 16.7166 25 12.3332 25H11.6667C6.63835 25 4.12422 25 2.56212 23.4379C1.00004 21.8759 1 19.3616 1 14.3333V13.6667C1 9.28336 1 7.09172 2.21059 5.61659C2.43223 5.34653 2.67987 5.09889 2.94992 4.87725C4.42506 3.66667 6.6167 3.66667 11 3.66667" stroke="#19988B" stroke-width="2" stroke-linecap="round" stroke-linejoin="round"/>
</svg>
