<svg width="10" height="9" viewBox="0 0 10 9" fill="none" xmlns="http://www.w3.org/2000/svg">
<path d="M1.62476 0.75C1.00776 0.75 0.5 1.26057 0.5 1.87757V7.87736C0.5 8.49436 1.00776 9.00118 1.62476 9.00118H7.62743C8.24443 9.00118 8.75126 8.49436 8.75126 7.87736V2.94375C7.86327 3.82799 6.98041 4.72119 6.09055 5.60169C5.93208 5.75876 5.72954 5.86049 5.50871 5.89238C5.22975 5.93739 4.94375 5.97443 4.66197 6.01381C3.99574 6.10711 3.39463 5.50651 3.48751 4.84029C3.52736 4.56086 3.56674 4.28095 3.60659 4.00153C3.63801 3.77788 3.74115 3.57113 3.90056 3.41124L6.5603 0.75054L1.62476 0.75Z" fill="#19988B"/>
<path d="M8.66129 9.615e-06C8.44561 9.615e-06 8.22901 0.0815891 8.06632 0.244752L4.40281 3.90874C4.35171 3.95985 4.31889 4.02642 4.30905 4.09768L4.18855 4.93598C4.17402 5.03913 4.20871 5.14322 4.28279 5.21682C4.3564 5.29042 4.46049 5.32559 4.56363 5.31105L5.4052 5.19103C5.47553 5.18072 5.5407 5.14837 5.59134 5.0982L9.25532 1.43421C9.58117 1.10837 9.58117 0.570597 9.25532 0.244742C9.09263 0.0820487 8.87602 0 8.66036 0L8.66129 9.615e-06Z" fill="#19988B"/>
</svg>
