<svg width="22" height="24" viewBox="0 0 22 24" fill="none" xmlns="http://www.w3.org/2000/svg">
<path d="M16.4289 3.7806C16.4289 2.89654 16.0827 2.0487 15.4665 1.42358C14.8503 0.798455 14.0146 0.447266 13.1431 0.447266H7.25185C6.5985 0.447849 5.97212 0.711624 5.51042 1.1806L0.721493 6.03727C0.259821 6.50593 0.000417709 7.14135 0.000278473 7.80393V20.4473C0.000278473 21.3313 0.346451 22.1792 0.962643 22.8043C1.57883 23.4294 2.41457 23.7806 3.28599 23.7806H8.76821C8.10584 23.3082 7.50907 22.7476 6.99392 22.1139H3.28599C2.85028 22.1139 2.43241 21.9383 2.12432 21.6258C1.81622 21.3132 1.64314 20.8893 1.64314 20.4473V8.7806H5.75028C6.40385 8.7806 7.03065 8.51721 7.49279 8.04837C7.95494 7.57953 8.21456 6.94364 8.21456 6.2806V2.11393H13.1431C13.5788 2.11393 13.9967 2.28953 14.3048 2.60209C14.6129 2.91465 14.786 3.33857 14.786 3.7806V7.1506C15.3418 7.20168 15.8918 7.3049 16.4289 7.45893V3.7806ZM5.75028 7.11393H1.98321L6.57171 2.45893V6.2806C6.57171 6.50161 6.48516 6.71357 6.33112 6.86985C6.17707 7.02613 5.96813 7.11393 5.75028 7.11393ZM13.9646 23.7806C12.9937 23.7806 12.0324 23.5866 11.1354 23.2097C10.2385 22.8328 9.42352 22.2803 8.73703 21.5839C8.05054 20.8875 7.50598 20.0607 7.13445 19.1507C6.76293 18.2408 6.57171 17.2655 6.57171 16.2806C6.57171 15.2957 6.76293 14.3204 7.13445 13.4105C7.50598 12.5005 8.05054 11.6737 8.73703 10.9773C9.42352 10.2809 10.2385 9.72841 11.1354 9.3515C12.0324 8.97459 12.9937 8.7806 13.9646 8.7806C15.9253 8.7806 17.8057 9.57078 19.1921 10.9773C20.5785 12.3838 21.3574 14.2915 21.3574 16.2806C21.3574 18.2697 20.5785 20.1774 19.1921 21.5839C17.8057 22.9904 15.9253 23.7806 13.9646 23.7806ZM10.0973 15.6906C9.94304 15.8471 9.85638 16.0593 9.85638 16.2806C9.85638 16.5019 9.94304 16.7141 10.0973 16.8706C10.2515 17.0271 10.4607 17.115 10.6789 17.115C10.897 17.115 11.1062 17.0271 11.2604 16.8706L13.1431 14.9589V19.6139C13.1431 19.8349 13.2297 20.0469 13.3837 20.2032C13.5378 20.3595 13.7467 20.4473 13.9646 20.4473C14.1824 20.4473 14.3914 20.3595 14.5454 20.2032C14.6995 20.0469 14.786 19.8349 14.786 19.6139V14.9589L16.6687 16.8706C16.8229 17.0271 17.0321 17.115 17.2503 17.115C17.4684 17.115 17.6776 17.0271 17.8319 16.8706C17.9861 16.7141 18.0727 16.5019 18.0727 16.2806C18.0727 16.0593 17.9861 15.8471 17.8319 15.6906L14.5461 12.3573C14.393 12.2023 14.1858 12.1149 13.9695 12.1139H13.9596C13.7455 12.1153 13.5404 12.2014 13.3879 12.3539L13.383 12.3589L10.0973 15.6906Z" fill="#C37C5A"/>
</svg>
