<svg width="25" height="25" viewBox="0 0 25 25" fill="none" xmlns="http://www.w3.org/2000/svg">
<path d="M4 12.4926V15.3329C4 18.9557 4 20.7671 5.10759 21.9941C5.33135 22.2419 5.58414 22.4676 5.86166 22.6675C7.23539 23.6567 9.26352 23.6567 13.3198 23.6567C14.2018 23.6567 14.6426 23.6567 15.0465 23.5295C15.1305 23.503 15.2128 23.4725 15.2931 23.4383C15.6795 23.2731 15.9912 22.9947 16.6149 22.4377L22.5355 17.1498C23.2581 16.5044 23.6194 16.1818 23.8097 15.7714C24 15.3611 24 14.9047 24 13.992V10.2597C24 6.04943 24 3.94431 22.5355 2.63633C21.0711 1.32837 18.714 1.32837 14 1.32837M15.25 23.0985V22.5403C15.25 19.3826 15.25 17.8038 16.3484 16.8228C17.4468 15.8418 19.2145 15.8418 22.75 15.8418H23.375" stroke="#606060" stroke-width="1.5" stroke-linecap="round" stroke-linejoin="round"/>
<path d="M11.5 4.67762C10.7627 4.00014 8.80034 1.32837 7.75 1.32837C6.69966 1.32837 4.7373 4.00014 4 4.67762M7.75 2.44479V10.2597" stroke="#606060" stroke-width="1.5" stroke-linecap="round" stroke-linejoin="round"/>
</svg>
