<svg width="39" height="29" viewBox="0 0 39 29" fill="none" xmlns="http://www.w3.org/2000/svg">
<rect x="0.5" y="0.5" width="38" height="27.575" rx="13.7875" fill="#F6E9E3"/>
<path d="M18.493 23.075V19.075C18.493 18.1417 18.3513 17.45 18.068 17C17.7846 16.55 17.4096 16.1083 16.943 15.675L18.368 14.25C18.568 14.4333 18.7596 14.6293 18.943 14.838C19.1263 15.0467 19.3096 15.2673 19.493 15.5C19.7263 15.1833 19.964 14.9043 20.206 14.663C20.448 14.4217 20.6936 14.184 20.943 13.95C21.5763 13.3667 22.1513 12.6917 22.668 11.925C23.1846 11.1583 23.4596 9.81668 23.493 7.90002L22.618 8.77502C22.4346 8.95835 22.2056 9.05002 21.931 9.05002C21.6563 9.05002 21.4186 8.95835 21.218 8.77502C21.018 8.57502 20.918 8.33768 20.918 8.06302C20.918 7.78835 21.018 7.55068 21.218 7.35002L23.793 4.77502C23.893 4.67502 24.0013 4.60402 24.118 4.56202C24.2346 4.52002 24.3596 4.49935 24.493 4.50002C24.6263 4.50068 24.7513 4.52135 24.868 4.56202C24.9846 4.60268 25.093 4.67368 25.193 4.77502L27.793 7.37502C27.9763 7.55835 28.0723 7.78735 28.081 8.06202C28.0896 8.33668 27.9936 8.57435 27.793 8.77502C27.6096 8.95835 27.3763 9.05002 27.093 9.05002C26.8096 9.05002 26.5763 8.95835 26.393 8.77502L25.493 7.90002C25.4596 10.2833 25.093 11.9793 24.393 12.988C23.693 13.9967 22.993 14.8173 22.293 15.45C21.7596 15.9333 21.3263 16.4043 20.993 16.863C20.6596 17.3217 20.493 18.059 20.493 19.075V23.075C20.493 23.3583 20.397 23.596 20.205 23.788C20.013 23.98 19.7756 24.0757 19.493 24.075C19.2103 24.0743 18.973 23.9783 18.781 23.787C18.589 23.5957 18.493 23.3583 18.493 23.075ZM13.693 10.25C13.6263 9.91668 13.5806 9.55002 13.556 9.15002C13.5313 8.75002 13.5103 8.33335 13.493 7.90002L12.593 8.80002C12.4096 8.98335 12.1806 9.07502 11.906 9.07502C11.6313 9.07502 11.3936 8.97502 11.193 8.77502C11.0096 8.59168 10.918 8.35835 10.918 8.07502C10.918 7.79168 11.0096 7.55835 11.193 7.37502L13.793 4.77502C13.893 4.67502 14.0013 4.60402 14.118 4.56202C14.2346 4.52002 14.3596 4.49968 14.493 4.50102C14.6263 4.50235 14.7513 4.52335 14.868 4.56402C14.9846 4.60468 15.093 4.67535 15.193 4.77602L17.793 7.37602C17.993 7.57602 18.089 7.80935 18.081 8.07602C18.073 8.34268 17.9686 8.57602 17.768 8.77602C17.568 8.95935 17.3346 9.05102 17.068 9.05102C16.8013 9.05102 16.568 8.95935 16.368 8.77602L15.493 7.92502C15.493 8.27502 15.5096 8.60435 15.543 8.91302C15.5763 9.22168 15.6096 9.50902 15.643 9.77502L13.693 10.25ZM15.843 14.65C15.5096 14.3 15.189 13.8917 14.881 13.425C14.573 12.9584 14.302 12.3833 14.068 11.7L15.993 11.225C16.1596 11.675 16.3513 12.0583 16.568 12.375C16.7846 12.6917 17.018 12.975 17.268 13.225L15.843 14.65Z" fill="#C37C5A"/>
</svg>
