<svg width="25" height="25" viewBox="0 0 25 25" fill="none" xmlns="http://www.w3.org/2000/svg">
<rect x="0.744141" y="0.414062" width="24" height="24" rx="6" fill="#C37C5A"/>
<path d="M17.2441 14.9141H15.7441V16.5807H17.2441M17.2441 11.5807H15.7441V13.2474H17.2441M18.7441 18.2474H12.7441V16.5807H14.2441V14.9141H12.7441V13.2474H14.2441V11.5807H12.7441V9.91406H18.7441M11.2441 8.2474H9.74414V6.58073H11.2441M11.2441 11.5807H9.74414V9.91406H11.2441M11.2441 14.9141H9.74414V13.2474H11.2441M11.2441 18.2474H9.74414V16.5807H11.2441M8.24414 8.2474H6.74414V6.58073H8.24414M8.24414 11.5807H6.74414V9.91406H8.24414M8.24414 14.9141H6.74414V13.2474H8.24414M8.24414 18.2474H6.74414V16.5807H8.24414M12.7441 8.2474V4.91406H5.24414V19.9141H20.2441V8.2474H12.7441Z" fill="white"/>
</svg>
