<svg width="38" height="28" viewBox="0 0 38 28" fill="none" xmlns="http://www.w3.org/2000/svg">
<rect width="38" height="28" rx="14" fill="#F6E9E3"/>
<path d="M14 4C12.9 4 12 4.9 12 6V8H11C9.9 8 9 8.9 9 10V22H11V23C11 23.55 11.45 24 12 24H13C13.55 24 14 23.55 14 23V22H24V23C24 23.55 24.45 24 25 24H26C26.55 24 27 23.55 27 23V22H29V10C29 9.46957 28.7893 8.96086 28.4142 8.58579C28.0391 8.21071 27.5304 8 27 8H26V6C26 5.46957 25.7893 4.96086 25.4142 4.58579C25.0391 4.21071 24.5304 4 24 4H14ZM21 12V10H27V12H21ZM21 16V14H27V16H21ZM14 6H24V8H14V6ZM14 10V14H16L13 20V16H11L14 10Z" fill="#934018"/>
</svg>
