<svg width="24" height="25" viewBox="0 0 24 25" fill="none" xmlns="http://www.w3.org/2000/svg">
<path d="M12.2728 13.0451C14.5321 13.0451 16.3637 11.2135 16.3637 8.95419C16.3637 6.69484 14.5321 4.86328 12.2728 4.86328C10.0134 4.86328 8.18188 6.69484 8.18188 8.95419C8.18188 11.2135 10.0134 13.0451 12.2728 13.0451Z" fill="#19988B"/>
<path fill-rule="evenodd" clip-rule="evenodd" d="M18.327 17.8187C18.3558 17.785 18.383 17.7487 18.4068 17.7105C18.5591 17.465 18.5879 17.153 18.4834 16.8791C18.2373 16.2383 17.8752 15.648 17.411 15.1472C16.4842 14.15 15.2283 13.5898 13.9188 13.5898C12.8489 13.5898 11.6966 13.5898 10.6267 13.5898C9.31724 13.5898 8.06129 14.15 7.13456 15.1472C6.67036 15.648 6.30823 16.2383 6.06214 16.8791C5.94033 17.1982 6.00041 17.5643 6.21769 17.8178C7.7222 19.5781 9.87856 20.6808 12.2728 20.6808C14.667 20.6808 16.8233 19.5781 18.3278 17.8178L18.327 17.8187Z" fill="#19988B"/>
<path fill-rule="evenodd" clip-rule="evenodd" d="M21.5751 9.116C21.9498 10.1748 22.1538 11.3138 22.1538 12.5C22.1538 18.104 17.604 22.6538 12 22.6538C6.396 22.6538 1.84615 18.104 1.84615 12.5C1.84615 6.896 6.396 2.34615 12 2.34615C13.1862 2.34615 14.3252 2.55015 15.384 2.92492C15.8649 3.09477 16.3929 2.84277 16.5628 2.36277C16.7326 1.88185 16.4806 1.35385 16.0006 1.184C14.7489 0.740923 13.4022 0.5 12 0.5C5.37692 0.5 0 5.87692 0 12.5C0 19.1231 5.37692 24.5 12 24.5C18.6231 24.5 24 19.1231 24 12.5C24 11.0978 23.7591 9.75108 23.316 8.49938C23.1462 8.01938 22.6182 7.76739 22.1372 7.93723C21.6572 8.10708 21.4052 8.63508 21.5751 9.116Z" fill="#19988B"/>
<path fill-rule="evenodd" clip-rule="evenodd" d="M18.9227 3.72957H17.5381C17.0285 3.72957 16.615 4.14311 16.615 4.65264C16.615 5.16218 17.0285 5.57572 17.5381 5.57572H18.9227V6.96034C18.9227 7.46987 19.3362 7.88341 19.8458 7.88341C20.3553 7.88341 20.7688 7.46987 20.7688 6.96034V5.57572H22.1535C22.663 5.57572 23.0765 5.16218 23.0765 4.65264C23.0765 4.14311 22.663 3.72957 22.1535 3.72957H20.7688V2.34495C20.7688 1.83541 20.3553 1.42188 19.8458 1.42188C19.3362 1.42188 18.9227 1.83541 18.9227 2.34495V3.72957Z" fill="#19988B"/>
</svg>
