<svg width="24" height="25" viewBox="0 0 24 25" fill="none" xmlns="http://www.w3.org/2000/svg">
<path fill-rule="evenodd" clip-rule="evenodd" d="M6 2.6582C5.20435 2.6582 4.44129 2.97427 3.87868 3.53688C3.31607 4.09949 3 4.86255 3 5.6582V19.6582C3 20.4539 3.31607 21.2169 3.87868 21.7795C4.44129 22.3421 5.20435 22.6582 6 22.6582H12C12.7956 22.6582 13.5587 22.3421 14.1213 21.7795C14.6839 21.2169 15 20.4539 15 19.6582V5.6582C15 4.86255 14.6839 4.09949 14.1213 3.53688C13.5587 2.97427 12.7956 2.6582 12 2.6582H6ZM16.293 7.9512C16.4805 7.76373 16.7348 7.65842 17 7.65842C17.2652 7.65842 17.5195 7.76373 17.707 7.9512L21.707 11.9512C21.8945 12.1387 21.9998 12.393 21.9998 12.6582C21.9998 12.9234 21.8945 13.1777 21.707 13.3652L17.707 17.3652C17.5184 17.5474 17.2658 17.6482 17.0036 17.6459C16.7414 17.6436 16.4906 17.5384 16.3052 17.353C16.1198 17.1676 16.0146 16.9168 16.0123 16.6546C16.01 16.3924 16.1108 16.1398 16.293 15.9512L18.586 13.6582H10C9.73478 13.6582 9.48043 13.5528 9.29289 13.3653C9.10536 13.1778 9 12.9234 9 12.6582C9 12.393 9.10536 12.1386 9.29289 11.9511C9.48043 11.7636 9.73478 11.6582 10 11.6582H18.586L16.293 9.3652C16.1055 9.17768 16.0002 8.92337 16.0002 8.6582C16.0002 8.39304 16.1055 8.13873 16.293 7.9512Z" fill="#19988B"/>
</svg>
