<svg width="11" height="19" viewBox="0 0 11 19" fill="none" xmlns="http://www.w3.org/2000/svg">
<path d="M0 1.55281L1.63598 0L10.5468 8.46284C10.6904 8.59844 10.8044 8.75969 10.8822 8.93732C10.96 9.11494 11 9.30542 11 9.4978C11 9.69018 10.96 9.88067 10.8822 10.0583C10.8044 10.2359 10.6904 10.3972 10.5468 10.5328L1.63598 19L0.00154209 17.4472L8.36493 9.5L0 1.55281Z" fill="#19988B"/>
<path d="M0 1.55281L1.63598 0L10.5468 8.46284C10.6904 8.59844 10.8044 8.75969 10.8822 8.93732C10.96 9.11494 11 9.30542 11 9.4978C11 9.69018 10.96 9.88067 10.8822 10.0583C10.8044 10.2359 10.6904 10.3972 10.5468 10.5328L1.63598 19L0.00154209 17.4472L8.36493 9.5L0 1.55281Z" fill="#19988B"/>
<path d="M0 1.55281L1.63598 0L10.5468 8.46284C10.6904 8.59844 10.8044 8.75969 10.8822 8.93732C10.96 9.11494 11 9.30542 11 9.4978C11 9.69018 10.96 9.88067 10.8822 10.0583C10.8044 10.2359 10.6904 10.3972 10.5468 10.5328L1.63598 19L0.00154209 17.4472L8.36493 9.5L0 1.55281Z" fill="#19988B"/>
<path d="M0 1.55281L1.63598 0L10.5468 8.46284C10.6904 8.59844 10.8044 8.75969 10.8822 8.93732C10.96 9.11494 11 9.30542 11 9.4978C11 9.69018 10.96 9.88067 10.8822 10.0583C10.8044 10.2359 10.6904 10.3972 10.5468 10.5328L1.63598 19L0.00154209 17.4472L8.36493 9.5L0 1.55281Z" fill="#19988B"/>
</svg>
