<svg width="16" height="16" viewBox="0 0 16 16" fill="none" xmlns="http://www.w3.org/2000/svg">
<path d="M3.40081 16C2.51724 16 1.76045 15.739 1.13045 15.2169C0.500453 14.6948 0.18581 14.067 0.186525 13.3333V4.44444C0.186525 3.71141 0.501168 3.08356 1.13045 2.56089C1.75974 2.03822 2.51652 1.77719 3.40081 1.77778H5.00795V0H6.07938V1.77778H9.29367V0H10.3651V1.77778H11.9722C12.8565 1.77778 13.6133 2.03881 14.2426 2.56089C14.8719 3.08296 15.1865 3.71081 15.1865 4.44444V13.3333C15.1865 14.067 14.8719 14.6948 14.2426 15.2169C13.6133 15.739 12.8565 16 11.9722 16H3.40081ZM3.40081 15.1111H11.9722C12.5615 15.1111 13.0662 14.9372 13.4862 14.5893C13.9062 14.2415 14.1158 13.8228 14.1151 13.3333V4.44444C14.1151 3.95556 13.9055 3.53718 13.4862 3.18933C13.0669 2.84148 12.5622 2.66726 11.9722 2.66667H3.40081C2.81152 2.66667 2.30724 2.84089 1.88795 3.18933C1.46867 3.53778 1.25867 3.95615 1.25795 4.44444V13.3333C1.25795 13.8222 1.46795 14.2409 1.88795 14.5893C2.30795 14.9378 2.81224 15.1117 3.40081 15.1111ZM3.93652 5.77778H11.4365V4.88889H3.93652V5.77778ZM7.68331 12.7351C8.27045 12.7351 8.76831 12.5668 9.17688 12.2302C9.58402 11.893 9.7876 11.4901 9.7876 11.0213C9.7876 10.645 9.65474 10.3197 9.38902 10.0453C9.12259 9.77156 8.5551 9.21511 7.68652 8.376C6.80867 9.21511 6.23902 9.77274 5.97759 10.0489C5.71617 10.3256 5.58545 10.6483 5.58545 11.0169C5.58545 11.4886 5.78795 11.893 6.19295 12.2302C6.59867 12.5668 7.09617 12.7351 7.68331 12.7351Z" fill="#19988B"/>
</svg>
