<svg width="28" height="19" viewBox="0 0 28 19" fill="none" xmlns="http://www.w3.org/2000/svg">
<path d="M26.4072 8.34036C26.8024 8.85764 27 9.1175 27 9.5C27 9.88371 26.8024 10.1424 26.4072 10.6596C24.6314 12.9862 20.0957 18 14 18C7.903 18 3.3686 12.985 1.5928 10.6596C1.1976 10.1424 1 9.8825 1 9.5C1 9.11629 1.1976 8.85764 1.5928 8.34036C3.3686 6.01379 7.9043 1 14 1C20.097 1 24.6314 6.015 26.4072 8.34036Z" stroke="#19988B" stroke-width="1.5" stroke-linecap="round" stroke-linejoin="round"/>
<path d="M17.9 9.50028C17.9 8.53413 17.4891 7.60756 16.7577 6.92439C16.0263 6.24122 15.0343 5.85742 14 5.85742C12.9656 5.85742 11.9737 6.24122 11.2423 6.92439C10.5109 7.60756 10.1 8.53413 10.1 9.50028C10.1 10.4664 10.5109 11.393 11.2423 12.0762C11.9737 12.7593 12.9656 13.1431 14 13.1431C15.0343 13.1431 16.0263 12.7593 16.7577 12.0762C17.4891 11.393 17.9 10.4664 17.9 9.50028Z" stroke="#19988B" stroke-width="1.5" stroke-linecap="round" stroke-linejoin="round"/>
</svg>
