<svg width="22" height="21" viewBox="0 0 22 21" fill="none" xmlns="http://www.w3.org/2000/svg">
<path d="M1.20004 0C1.3857 0 1.56376 0.0790059 1.69505 0.219637C1.82633 0.360268 1.90008 0.551005 1.90008 0.749888V20.247C1.90008 20.4458 1.82633 20.6366 1.69505 20.7772C1.56376 20.9178 1.3857 20.9969 1.20004 20.9969C1.01438 20.9969 0.836321 20.9178 0.705038 20.7772C0.573754 20.6366 0.5 20.4458 0.5 20.247V0.749888C0.5 0.551005 0.573754 0.360268 0.705038 0.219637C0.836321 0.0790059 1.01438 0 1.20004 0ZM8.82629 0.320952C8.56288 0.13141 8.25631 0.0221552 7.93939 0.00487839C7.62247 -0.0123984 7.30713 0.062953 7.02711 0.22287C6.74709 0.382786 6.51292 0.62125 6.34968 0.912744C6.18643 1.20424 6.10024 1.53779 6.10033 1.87772V19.1251C6.10031 19.4661 6.18709 19.8006 6.35134 20.0927C6.51559 20.3847 6.75109 20.6233 7.03249 20.7827C7.31389 20.942 7.63054 21.0161 7.94834 20.9971C8.26615 20.978 8.57308 20.8664 8.8361 20.6744L20.7368 11.9862C20.973 11.8135 21.166 11.5814 21.2991 11.3102C21.4321 11.039 21.5011 10.7371 21.5 10.4308C21.4989 10.1244 21.4277 9.82305 21.2927 9.553C21.1577 9.28295 20.963 9.05245 20.7256 8.88167L8.82629 0.320952Z" fill="white"/>
</svg>
