<svg width="25" height="25" viewBox="0 0 25 25" fill="none" xmlns="http://www.w3.org/2000/svg">
<path d="M23.9833 4.90418C23.8765 4.80038 23.7456 4.71647 23.5987 4.65776C23.4518 4.59905 23.2922 4.5668 23.1299 4.56305C20.6091 4.50712 17.4194 2.21982 15.3105 1.32223C14.0078 0.769511 13.1478 0.405071 12.5019 0.309068C12.3708 0.292504 12.2375 0.292818 12.1065 0.31C11.4607 0.406003 10.6006 0.770444 9.29907 1.32316C7.19018 2.21982 4.00048 4.50712 1.4797 4.56305C1.31732 4.56723 1.15769 4.59966 1.0107 4.65834C0.863705 4.71702 0.73248 4.8007 0.625158 4.90418C0.403016 5.11791 0.288288 5.39693 0.305529 5.68153C0.847031 15.0237 4.79571 20.8053 11.7243 24.1655C11.9044 24.2521 12.1043 24.2969 12.3031 24.2969C12.5019 24.2969 12.7019 24.2521 12.8831 24.1655C19.8117 20.8053 23.7592 15.0237 24.3018 5.68153C24.3206 5.39691 24.2061 5.11754 23.9833 4.90418ZM18.4738 8.57841L12.6272 15.8998C12.4174 16.1627 12.0879 16.337 11.7616 16.337C11.4354 16.337 11.0708 16.1851 10.8412 15.9902L6.72007 12.4922C6.58552 12.3776 6.50998 12.2224 6.50998 12.0606C6.50998 11.8989 6.58552 11.7437 6.72007 11.6291L7.73827 10.7632C7.87388 10.6499 8.05653 10.5864 8.24682 10.5864C8.43711 10.5864 8.61976 10.6499 8.75537 10.7632L11.4354 13.0374L16.0915 7.20547C16.1992 7.07201 16.3648 6.98015 16.552 6.94994C16.7393 6.91973 16.9331 6.95362 17.091 7.04422L18.2827 7.73023C18.4402 7.8215 18.5486 7.96194 18.5845 8.12086C18.6203 8.27979 18.5805 8.44429 18.4738 8.57841Z" fill="#19988B"/>
</svg>
