<svg width="24" height="25" viewBox="0 0 24 25" fill="none" xmlns="http://www.w3.org/2000/svg">
<path d="M23.9999 20.8203C23.9999 21.0709 23.9051 21.3112 23.7363 21.4884C23.5675 21.6656 23.3386 21.7651 23.0999 21.7651H16.9799C16.7795 22.5498 16.338 23.2431 15.7241 23.7375C15.1101 24.232 14.3578 24.5 13.584 24.5C12.8101 24.5 12.0578 24.232 11.4439 23.7375C10.8299 23.2431 10.3884 22.5498 10.188 21.7651H0.899997C0.661303 21.7651 0.432385 21.6656 0.263603 21.4884C0.0948207 21.3112 0 21.0709 0 20.8203C0 20.5698 0.0948207 20.3295 0.263603 20.1523C0.432385 19.9751 0.661303 19.8756 0.899997 19.8756H10.188C10.3884 19.0909 10.8299 18.3976 11.4439 17.9032C12.0578 17.4087 12.8101 17.1407 13.584 17.1407C14.3578 17.1407 15.1101 17.4087 15.7241 17.9032C16.338 18.3976 16.7795 19.0909 16.9799 19.8756H23.0999C23.3386 19.8756 23.5675 19.9751 23.7363 20.1523C23.9051 20.3295 23.9999 20.5698 23.9999 20.8203ZM23.9999 4.17966C23.9999 4.43023 23.9051 4.67054 23.7363 4.84772C23.5675 5.0249 23.3386 5.12444 23.0999 5.12444H20.1599C19.9595 5.90908 19.518 6.60238 18.904 7.09684C18.29 7.59131 17.5378 7.85932 16.7639 7.85932C15.9901 7.85932 15.2378 7.59131 14.6238 7.09684C14.0098 6.60238 13.5684 5.90908 13.368 5.12444H0.899997C0.781808 5.12444 0.664776 5.1 0.555583 5.05252C0.44639 5.00504 0.347175 4.93545 0.263603 4.84772C0.18003 4.75999 0.113737 4.65584 0.0685081 4.54121C0.023279 4.42659 0 4.30373 0 4.17966C0 4.05559 0.023279 3.93274 0.0685081 3.81811C0.113737 3.70348 0.18003 3.59933 0.263603 3.5116C0.347175 3.42387 0.44639 3.35428 0.555583 3.3068C0.664776 3.25932 0.781808 3.23488 0.899997 3.23488H13.368C13.5684 2.45024 14.0098 1.75694 14.6238 1.26248C15.2378 0.76801 15.9901 0.5 16.7639 0.5C17.5378 0.5 18.29 0.76801 18.904 1.26248C19.518 1.75694 19.9595 2.45024 20.1599 3.23488H23.0999C23.2186 3.23319 23.3363 3.25647 23.4462 3.30335C23.5562 3.35023 23.656 3.41976 23.7399 3.50783C23.8238 3.5959 23.89 3.70072 23.9347 3.81611C23.9794 3.93151 24.0015 4.05512 23.9999 4.17966ZM23.9999 12.4937C24.0015 12.6182 23.9794 12.7419 23.9347 12.8572C23.89 12.9726 23.8238 13.0775 23.7399 13.1655C23.656 13.2536 23.5562 13.3231 23.4462 13.37C23.3363 13.4169 23.2186 13.4402 23.0999 13.4385H9.05997C8.85952 14.2231 8.41807 14.9164 7.80408 15.4109C7.19008 15.9054 6.43784 16.1734 5.66398 16.1734C4.89012 16.1734 4.13788 15.9054 3.52388 15.4109C2.90989 14.9164 2.46844 14.2231 2.26799 13.4385H0.899997C0.661303 13.4385 0.432385 13.3389 0.263603 13.1618C0.0948207 12.9846 0 12.7443 0 12.4937C0 12.2431 0.0948207 12.0028 0.263603 11.8256C0.432385 11.6485 0.661303 11.5489 0.899997 11.5489H2.26799C2.46844 10.7643 2.90989 10.071 3.52388 9.57652C4.13788 9.08205 4.89012 8.81404 5.66398 8.81404C6.43784 8.81404 7.19008 9.08205 7.80408 9.57652C8.41807 10.071 8.85952 10.7643 9.05997 11.5489H23.0999C23.3386 11.5489 23.5675 11.6485 23.7363 11.8256C23.9051 12.0028 23.9999 12.2431 23.9999 12.4937Z" fill="#19988B"/>
</svg>
