<svg width="26" height="27" viewBox="0 0 26 27" fill="none" xmlns="http://www.w3.org/2000/svg">
<path d="M1.0378 16.531C0.769185 18.1547 1.97011 19.2816 3.44048 19.8432C9.07765 21.9965 16.9223 21.9965 22.5594 19.8432C24.0299 19.2816 25.2308 18.1547 24.9622 16.531C24.7971 15.5332 23.9809 14.7023 23.3761 13.891C22.5839 12.8152 22.5052 11.6418 22.5051 10.3935C22.5051 5.56912 18.2495 1.6582 13 1.6582C7.75047 1.6582 3.4949 5.56912 3.4949 10.3935C3.49477 11.6418 3.41607 12.8152 2.62393 13.891C2.01917 14.7023 1.20288 15.5332 1.0378 16.531Z" fill="#19988B" stroke="#19988B" stroke-width="1.7" stroke-linecap="round" stroke-linejoin="round"/>
<path d="M9.21057 24.459C10.2162 25.2053 11.5443 25.659 13 25.659C14.4558 25.659 15.7839 25.2053 16.7895 24.459" stroke="#19988B" stroke-width="1.7" stroke-linecap="round" stroke-linejoin="round"/>
</svg>
