<svg width="25" height="27" viewBox="0 0 25 27" fill="none" xmlns="http://www.w3.org/2000/svg">
<path d="M14.5052 17.2891H10.5232V18.6953H14.5052V17.2891Z" fill="#19988B"/>
<path d="M10.0359 6.32031L10.4207 6.79633L10.8055 6.32031C10.953 6.14018 11.152 6.03917 11.3593 6.03917C11.5666 6.03917 11.7656 6.14018 11.9131 6.32031L12.2979 6.79597L12.6828 6.32031C12.8302 6.1401 13.0292 6.03902 13.2365 6.03902C13.4439 6.03902 13.6429 6.1401 13.7903 6.32031L14.5079 7.20871V4.98438H6.54395V9.26535L8.92831 6.32031C9.07582 6.14027 9.27478 6.03931 9.48209 6.03931C9.6894 6.03931 9.88836 6.14027 10.0359 6.32031Z" fill="#19988B"/>
<path d="M13.3856 6.81862C13.3449 6.76932 13.2901 6.74186 13.233 6.74219C13.176 6.74252 13.1214 6.77061 13.081 6.82038L12.5002 7.53862C12.4994 7.54045 12.4984 7.54222 12.4974 7.54389L11.5221 8.74623C11.4678 8.80539 11.3973 8.83673 11.3249 8.83386C11.2526 8.831 11.1838 8.79414 11.1327 8.73081C11.0816 8.66747 11.0519 8.58243 11.0497 8.49299C11.0476 8.40356 11.0731 8.31647 11.121 8.24947L11.8947 7.29498L11.5093 6.81862C11.4686 6.76934 11.4138 6.74189 11.3568 6.74222C11.2998 6.74255 11.2453 6.77063 11.2049 6.82038L10.6244 7.53756C10.6227 7.53756 10.6224 7.54213 10.621 7.54389L9.64485 8.74623C9.61911 8.78218 9.58769 8.81122 9.55253 8.83159C9.51736 8.85195 9.47919 8.8632 9.44037 8.86463C9.40156 8.86607 9.36291 8.85766 9.32682 8.83993C9.29073 8.82221 9.25796 8.79553 9.23053 8.76155C9.2031 8.72758 9.18159 8.68702 9.16732 8.64237C9.15306 8.59773 9.14634 8.54994 9.14758 8.50197C9.14883 8.45399 9.15801 8.40684 9.17456 8.36341C9.1911 8.31999 9.21467 8.28121 9.24381 8.24947L10.0175 7.29498L9.63205 6.81862C9.59122 6.76938 9.53635 6.74197 9.47931 6.7423C9.42226 6.74263 9.36761 6.77067 9.32715 6.82038L7.1123 9.55482H14.5057V8.20307L13.3856 6.81862Z" fill="#19988B"/>
<path d="M0.853284 17.289H4.55085V3.61328C4.55034 3.24489 4.66748 2.89114 4.8768 2.6289H4.87879C4.99822 2.48164 5.14175 2.36765 5.29975 2.29457L9.4797 0.414062H0.853284C0.626979 0.414063 0.409943 0.525181 0.249921 0.722973C0.0898993 0.920765 0 1.18903 0 1.46875V16.2343C0 16.5141 0.0898993 16.7823 0.249921 16.9801C0.409943 17.1779 0.626979 17.289 0.853284 17.289Z" fill="#19988B"/>
<path d="M22.7689 2.58594H5.0302C4.91923 2.74882 4.86029 2.94026 4.86084 3.13594V26.0859C4.86084 26.2185 4.91475 26.3457 5.0107 26.4395C5.10666 26.5333 5.2368 26.5859 5.3725 26.5859H22.7689C23.176 26.5859 23.5664 26.4279 23.8543 26.1466C24.1422 25.8653 24.3039 25.4838 24.3039 25.0859V4.08594C24.3039 3.68811 24.1422 3.30658 23.8543 3.02528C23.5664 2.74397 23.176 2.58594 22.7689 2.58594ZM6.90748 15.5859H13.559C13.6947 15.5859 13.8249 15.6386 13.9208 15.7324C14.0168 15.8262 14.0707 15.9533 14.0707 16.0859C14.0707 16.2185 14.0168 16.3457 13.9208 16.4395C13.8249 16.5333 13.6947 16.5859 13.559 16.5859H6.90748C6.77178 16.5859 6.64164 16.5333 6.54568 16.4395C6.44973 16.3457 6.39582 16.2185 6.39582 16.0859C6.39582 15.9533 6.44973 15.8262 6.54568 15.7324C6.64164 15.6386 6.77178 15.5859 6.90748 15.5859ZM6.39582 14.0859C6.39582 13.9533 6.44973 13.8262 6.54568 13.7324C6.64164 13.6386 6.77178 13.5859 6.90748 13.5859H8.44246C8.57816 13.5859 8.7083 13.6386 8.80426 13.7324C8.90021 13.8262 8.95412 13.9533 8.95412 14.0859C8.95412 14.2185 8.90021 14.3457 8.80426 14.4395C8.7083 14.5333 8.57816 14.5859 8.44246 14.5859H6.90748C6.77178 14.5859 6.64164 14.5333 6.54568 14.4395C6.44973 14.3457 6.39582 14.2185 6.39582 14.0859ZM6.90748 17.5859H8.44246C8.57816 17.5859 8.7083 17.6386 8.80426 17.7324C8.90021 17.8262 8.95412 17.9533 8.95412 18.0859C8.95412 18.2185 8.90021 18.3457 8.80426 18.4395C8.7083 18.5333 8.57816 18.5859 8.44246 18.5859H6.90748C6.77178 18.5859 6.64164 18.5333 6.54568 18.4395C6.44973 18.3457 6.39582 18.2185 6.39582 18.0859C6.39582 17.9533 6.44973 17.8262 6.54568 17.7324C6.64164 17.6386 6.77178 17.5859 6.90748 17.5859ZM6.90748 19.5859H13.559C13.6947 19.5859 13.8249 19.6386 13.9208 19.7324C14.0168 19.8262 14.0707 19.9533 14.0707 20.0859C14.0707 20.2185 14.0168 20.3457 13.9208 20.4395C13.8249 20.5333 13.6947 20.5859 13.559 20.5859H6.90748C6.77178 20.5859 6.64164 20.5333 6.54568 20.4395C6.44973 20.3457 6.39582 20.2185 6.39582 20.0859C6.39582 19.9533 6.44973 19.8262 6.54568 19.7324C6.64164 19.6386 6.77178 19.5859 6.90748 19.5859ZM12.5357 24.5859C12.5357 24.8512 12.4279 25.1055 12.236 25.293C12.0441 25.4806 11.7838 25.5859 11.5124 25.5859H7.41914C7.14774 25.5859 6.88745 25.4806 6.69554 25.293C6.50363 25.1055 6.39582 24.8512 6.39582 24.5859V22.5859C6.39582 22.3207 6.50363 22.0664 6.69554 21.8788C6.88745 21.6913 7.14774 21.5859 7.41914 21.5859H11.5124C11.7838 21.5859 12.0441 21.6913 12.236 21.8788C12.4279 22.0664 12.5357 22.3207 12.5357 22.5859V24.5859ZM22.7689 24.5859C22.7689 24.8512 22.6611 25.1055 22.4692 25.293C22.2773 25.4806 22.017 25.5859 21.7456 25.5859H14.5824C14.311 25.5859 14.0507 25.4806 13.8588 25.293C13.6669 25.1055 13.559 24.8512 13.559 24.5859V22.5859C13.559 22.3207 13.6669 22.0664 13.8588 21.8788C14.0507 21.6913 14.311 21.5859 14.5824 21.5859H21.7456C22.017 21.5859 22.2773 21.6913 22.4692 21.8788C22.6611 22.0664 22.7689 22.3207 22.7689 22.5859V24.5859ZM22.2573 20.5859H15.6057C15.47 20.5859 15.3398 20.5333 15.2439 20.4395C15.1479 20.3457 15.094 20.2185 15.094 20.0859C15.094 19.9533 15.1479 19.8262 15.2439 19.7324C15.3398 19.6386 15.47 19.5859 15.6057 19.5859H22.2573C22.393 19.5859 22.5231 19.6386 22.6191 19.7324C22.715 19.8262 22.7689 19.9533 22.7689 20.0859C22.7689 20.2185 22.715 20.3457 22.6191 20.4395C22.5231 20.5333 22.393 20.5859 22.2573 20.5859ZM22.2573 18.5859H10.4891C10.3534 18.5859 10.2233 18.5333 10.1273 18.4395C10.0313 18.3457 9.97743 18.2185 9.97743 18.0859C9.97743 17.9533 10.0313 17.8262 10.1273 17.7324C10.2233 17.6386 10.3534 17.5859 10.4891 17.5859H22.2573C22.393 17.5859 22.5231 17.6386 22.6191 17.7324C22.715 17.8262 22.7689 17.9533 22.7689 18.0859C22.7689 18.2185 22.715 18.3457 22.6191 18.4395C22.5231 18.5333 22.393 18.5859 22.2573 18.5859ZM22.2573 16.5859H15.6057C15.47 16.5859 15.3398 16.5333 15.2439 16.4395C15.1479 16.3457 15.094 16.2185 15.094 16.0859C15.094 15.9533 15.1479 15.8262 15.2439 15.7324C15.3398 15.6386 15.47 15.5859 15.6057 15.5859H22.2573C22.393 15.5859 22.5231 15.6386 22.6191 15.7324C22.715 15.8262 22.7689 15.9533 22.7689 16.0859C22.7689 16.2185 22.715 16.3457 22.6191 16.4395C22.5231 16.5333 22.393 16.5859 22.2573 16.5859ZM22.2573 14.5859H10.4891C10.3534 14.5859 10.2233 14.5333 10.1273 14.4395C10.0313 14.3457 9.97743 14.2185 9.97743 14.0859C9.97743 13.9533 10.0313 13.8262 10.1273 13.7324C10.2233 13.6386 10.3534 13.5859 10.4891 13.5859H22.2573C22.393 13.5859 22.5231 13.6386 22.6191 13.7324C22.715 13.8262 22.7689 13.9533 22.7689 14.0859C22.7689 14.2185 22.715 14.3457 22.6191 14.4395C22.5231 14.5333 22.393 14.5859 22.2573 14.5859ZM22.7689 11.5859C22.7689 11.8512 22.6611 12.1055 22.4692 12.293C22.2773 12.4806 22.017 12.5859 21.7456 12.5859H7.41914C7.14774 12.5859 6.88745 12.4806 6.69554 12.293C6.50363 12.1055 6.39582 11.8512 6.39582 11.5859V5.08594C6.39582 4.82072 6.50363 4.56637 6.69554 4.37883C6.88745 4.19129 7.14774 4.08594 7.41914 4.08594H21.7456C22.017 4.08594 22.2773 4.19129 22.4692 4.37883C22.6611 4.56637 22.7689 4.82072 22.7689 5.08594V11.5859Z" fill="#19988B"/>
<path d="M10.8104 2.5234V0.765586C10.8091 0.70158 10.7932 0.639327 10.7646 0.585938L6.45239 2.5234H10.8104Z" fill="#19988B"/>
<path d="M8.81937 17.2891H6.54395V18.6953H8.81937V17.2891Z" fill="#19988B"/>
</svg>
