<svg width="32" height="32" viewBox="0 0 32 32" fill="none" xmlns="http://www.w3.org/2000/svg">
<path d="M15.9999 30.9978L13 21.998H1L3.99999 30.9978H15.9999ZM15.9999 30.9978H21.9999H15.9999Z" fill="#19988B"/>
<path d="M15.9999 30.9978L13 21.998H1L3.99999 30.9978H15.9999ZM15.9999 30.9978H21.9999" stroke="#19988B" stroke-width="1.7" stroke-linecap="round" stroke-linejoin="round"/>
<path d="M16 18.0465V17.289C16 14.4321 16 13.0036 15.1014 12.1161C14.2027 11.2285 12.7564 11.2285 9.8637 11.2285C6.971 11.2285 5.52465 11.2285 4.62601 12.1161C3.72736 13.0036 3.72736 14.4321 3.72736 17.289V18.0465" fill="#19988B"/>
<path d="M16 18.0465V17.289C16 14.4321 16 13.0036 15.1014 12.1161C14.2027 11.2285 12.7564 11.2285 9.8637 11.2285C6.971 11.2285 5.52465 11.2285 4.62601 12.1161C3.72736 13.0036 3.72736 14.4321 3.72736 17.289V18.0465" stroke="#19988B" stroke-width="1.7" stroke-linecap="round" stroke-linejoin="round"/>
<path d="M26.4997 17.498C26.4997 19.1548 25.1566 20.4979 23.4997 20.4979C21.8428 20.4979 20.4997 19.1548 20.4997 17.498C20.4997 15.8411 21.8428 14.498 23.4997 14.498C25.1566 14.498 26.4997 15.8411 26.4997 17.498Z" fill="#19988B" stroke="#19988B" stroke-width="1.7"/>
<path d="M12.9997 3.99993C12.9997 5.65674 11.6566 6.99985 9.99974 6.99985C8.3429 6.99985 6.99976 5.65674 6.99976 3.99993C6.99976 2.34311 8.3429 1 9.99974 1C11.6566 1 12.9997 2.34311 12.9997 3.99993Z" fill="#19988B" stroke="#19988B" stroke-width="1.7"/>
<path d="M19.0001 24.25H28C29.6569 24.25 31 25.5931 31 27.2499V27.9999C31 29.6568 29.6569 30.9998 28 30.9998H26.5" fill="#19988B"/>
<path d="M19.0001 24.25H28C29.6569 24.25 31 25.5931 31 27.2499V27.9999C31 29.6568 29.6569 30.9998 28 30.9998H26.5" stroke="#19988B" stroke-width="1.7" stroke-linecap="round"/>
</svg>
