<svg width="24" height="25" viewBox="0 0 24 25" fill="none" xmlns="http://www.w3.org/2000/svg">
<path fill-rule="evenodd" clip-rule="evenodd" d="M6.66667 5.99154C6.66667 4.57705 7.22857 3.22049 8.22876 2.2203C9.22896 1.22011 10.5855 0.658203 12 0.658203C13.4145 0.658203 14.771 1.22011 15.7712 2.2203C16.7714 3.22049 17.3333 4.57705 17.3333 5.99154C17.3333 7.40602 16.7714 8.76258 15.7712 9.76277C14.771 10.763 13.4145 11.3249 12 11.3249C10.5855 11.3249 9.22896 10.763 8.22876 9.76277C7.22857 8.76258 6.66667 7.40602 6.66667 5.99154ZM6.66667 13.9915C4.89856 13.9915 3.20286 14.6939 1.95262 15.9442C0.702379 17.1944 0 18.8901 0 20.6582C0 21.7191 0.421427 22.7365 1.17157 23.4866C1.92172 24.2368 2.93913 24.6582 4 24.6582H20C21.0609 24.6582 22.0783 24.2368 22.8284 23.4866C23.5786 22.7365 24 21.7191 24 20.6582C24 18.8901 23.2976 17.1944 22.0474 15.9442C20.7971 14.6939 19.1014 13.9915 17.3333 13.9915H6.66667Z" fill="#19988B"/>
</svg>
