<svg width="24" height="25" viewBox="0 0 24 25" fill="none" xmlns="http://www.w3.org/2000/svg">
<path d="M0.857143 0.5H23.1429C23.6164 0.5 24 0.883541 24 1.35711V3.07142C24 3.54499 23.6164 3.9286 23.1429 3.9286H0.857143C0.383557 3.9286 0 3.54499 0 3.07142V1.35711C0 0.883541 0.383557 0.5 0.857143 0.5Z" fill="#19988B"/>
<path fill-rule="evenodd" clip-rule="evenodd" d="M22.2857 17.6429C22.2857 18.1164 21.9022 18.5001 21.4286 18.5001H12.8571V20.3965C13.6136 20.7275 14.1429 21.4807 14.1429 22.3572C14.1429 23.5379 13.1818 24.5 12 24.5C10.8182 24.5 9.85714 23.5379 9.85714 22.3572C9.85714 21.4818 10.3864 20.7286 11.1429 20.3965V18.5001H2.57143C2.09784 18.5001 1.71429 18.1164 1.71429 17.6429V4.78572H22.2857V17.6429ZM16.2857 7.35713H7.71429C7.2407 7.35713 6.85714 7.74075 6.85714 8.21432C6.85714 8.68789 7.2407 9.07143 7.71429 9.07143H16.2857C16.7593 9.07143 17.1429 8.68789 17.1429 8.21432C17.1429 7.74075 16.7593 7.35713 16.2857 7.35713ZM6 10.7857C5.52641 10.7857 5.14286 11.1693 5.14286 11.6428C5.14286 12.1164 5.52641 12.5 6 12.5H18C18.4736 12.5 18.8571 12.1164 18.8571 11.6428C18.8571 11.1693 18.4736 10.7857 18 10.7857H6ZM7.71429 15.0715C7.71429 15.545 8.09784 15.9286 8.57143 15.9286H15.4286C15.9022 15.9286 16.2857 15.545 16.2857 15.0715C16.2857 14.5979 15.9022 14.2143 15.4286 14.2143H8.57143C8.09784 14.2143 7.71429 14.5979 7.71429 15.0715Z" fill="#19988B"/>
</svg>
