<svg width="24" height="25" viewBox="0 0 24 25" fill="none" xmlns="http://www.w3.org/2000/svg">
<path d="M3 5C3 4.17157 3.67157 3.5 4.5 3.5H6.5C7.32843 3.5 8 4.17157 8 5V7C8 7.82843 7.32843 8.5 6.5 8.5H4.5C3.67157 8.5 3 7.82843 3 7V5Z" fill="#19988B" stroke="#19988B" stroke-width="1.5"/>
<path d="M3 18C3 17.1716 3.67157 16.5 4.5 16.5H6.5C7.32843 16.5 8 17.1716 8 18V20C8 20.8284 7.32843 21.5 6.5 21.5H4.5C3.67157 21.5 3 20.8284 3 20V18Z" fill="#19988B" stroke="#19988B" stroke-width="1.5"/>
<path d="M8.00002 19H21M16 6H8.00002M16.3235 8.17649L7.64868 16.8513" stroke="#19988B" stroke-width="1.5" stroke-linecap="round" stroke-linejoin="round"/>
<path d="M16 5C16 4.17157 16.6716 3.5 17.5 3.5H19.5C20.3284 3.5 21 4.17157 21 5V7C21 7.82843 20.3284 8.5 19.5 8.5H17.5C16.6716 8.5 16 7.82843 16 7V5Z" fill="#19988B" stroke="#19988B" stroke-width="1.5"/>
<path d="M18 21.5L19.3883 20.5537C20.4628 19.8213 21 19.4551 21 19C21 18.5449 20.4628 18.1787 19.3883 17.4463L18 16.5" stroke="#19988B" stroke-width="1.5" stroke-linecap="round" stroke-linejoin="round"/>
</svg>
