<svg width="25" height="25" viewBox="0 0 25 25" fill="none" xmlns="http://www.w3.org/2000/svg">
<path d="M7.78349 5.2446L5.81361 4.96633L4.93834 3.19056C4.73696 2.78153 4.06194 2.78153 3.86057 3.19056L2.9853 4.96633L1.01542 5.2446C0.789286 5.277 0.600287 5.43458 0.529409 5.65027C0.458535 5.86707 0.518159 6.10398 0.682411 6.26268L2.11117 7.63838L1.76916 9.58626C1.72979 9.81089 1.82204 10.0366 2.00766 10.1707C2.19329 10.3049 2.43855 10.3205 2.64104 10.2154L4.40057 9.29011L6.1601 10.2154C6.24785 10.2624 6.3446 10.2847 6.44135 10.2847C6.5651 10.2847 6.68998 10.2467 6.79461 10.1707C6.98024 10.0366 7.07249 9.80978 7.03312 9.58626L6.69111 7.63838L8.11987 6.26268C8.28412 6.10399 8.34375 5.86596 8.27287 5.65027C8.202 5.43347 8.01299 5.27701 7.78687 5.2446H7.78349Z" fill="#19988B"/>
<path d="M16.1504 3.05416L13.9949 2.74907L13.0364 0.806769C12.835 0.397744 12.16 0.397744 11.9586 0.806769L11.0001 2.74907L8.84461 3.05416C8.61735 3.08657 8.42948 3.24414 8.3586 3.45984C8.28772 3.67664 8.34735 3.91355 8.5116 4.07225L10.0754 5.57757L9.70074 7.70873C9.66136 7.93335 9.75361 8.15909 9.93924 8.29321C10.1249 8.42733 10.3701 8.44408 10.5726 8.33791L12.4975 7.32541L14.4224 8.33791C14.5102 8.38485 14.6069 8.4072 14.7037 8.4072C14.8274 8.4072 14.9512 8.3692 15.0569 8.29321C15.2426 8.15911 15.3348 7.93225 15.2954 7.70873L14.9208 5.57757L16.4834 4.07225C16.6477 3.91355 16.7073 3.67664 16.6364 3.45984C16.5656 3.24304 16.3766 3.08657 16.1493 3.05416H16.1504Z" fill="#19988B"/>
<path d="M24.4695 5.65027C24.3986 5.43347 24.2096 5.27701 23.9823 5.2446L22.0125 4.96633L21.1372 3.19056C20.9358 2.78153 20.2608 2.78153 20.0594 3.19056L19.1841 4.96633L17.2143 5.2446C16.987 5.277 16.7991 5.43458 16.7271 5.65027C16.6563 5.86707 16.7159 6.10398 16.8801 6.26268L18.3089 7.63838L17.9669 9.58626C17.9275 9.81089 18.0198 10.0366 18.2054 10.1707C18.3921 10.3049 18.6374 10.3205 18.8388 10.2154L20.5983 9.29011L22.3578 10.2154C22.4456 10.2624 22.5423 10.2847 22.6391 10.2847C22.7628 10.2847 22.8866 10.2467 22.9923 10.1707C23.178 10.0366 23.2702 9.80978 23.2308 9.58626L22.8888 7.63838L24.3176 6.26268C24.4818 6.10399 24.5415 5.86596 24.4706 5.65027H24.4695Z" fill="#19988B"/>
<path d="M7.13196 14.4376H5.48155C4.56579 14.4376 3.81992 15.1774 3.81992 16.0882V22.8494C3.81992 23.7591 4.56467 24.5 5.48155 24.5H7.13196C8.04772 24.5 8.79359 23.7602 8.79359 22.8494V16.0882C8.79359 15.1785 8.04884 14.4376 7.13196 14.4376ZM6.8597 17.5477C6.8597 17.8517 6.6122 18.0975 6.30619 18.0975C6.00018 18.0975 5.75268 17.8517 5.75268 17.5477V16.9073C5.75268 16.6034 6.00018 16.3575 6.30619 16.3575C6.6122 16.3575 6.8597 16.6034 6.8597 16.9073V17.5477Z" fill="#19988B"/>
<path d="M21.1679 16.6905C21.2264 16.1138 21.0363 15.5383 20.647 15.1103C20.2578 14.6823 19.7009 14.4375 19.1215 14.4375H16.1021L16.5138 13.4596C16.8243 12.6394 16.6601 11.714 16.0863 11.0446C15.5036 10.3652 14.6204 10.0657 13.7159 10.2456C13.465 10.2947 13.2468 10.4624 13.141 10.6736L11.2173 14.1716C11.0676 14.4443 10.8449 14.6712 10.5749 14.8276L10.2711 15.0031C10.0416 15.1361 9.90096 15.3797 9.90096 15.6435V23.1857C9.90096 23.4684 10.063 23.7266 10.3183 23.8517L10.5816 23.9803C11.2791 24.3211 12.0463 24.4966 12.8238 24.4966H17.7446C18.837 24.4966 19.7741 23.6908 19.8776 22.6615C19.9293 22.1464 19.7831 21.6323 19.4748 21.2244C20.0475 20.9014 20.4547 20.3337 20.5222 19.6743C20.574 19.1592 20.4277 18.6451 20.1195 18.2372C20.6921 17.9142 21.0994 17.3465 21.1669 16.6872L21.1679 16.6905Z" fill="#19988B"/>
</svg>
