<svg width="24" height="24" viewBox="0 0 24 24" fill="none" xmlns="http://www.w3.org/2000/svg">
<g clip-path="url(#clip0_1510_5784)">
<path d="M6.53334 12.533H17.4667V14.5863H18.5333V11.4663H12.5333V9.33301H11.4667V11.4663H5.46667V14.5863H6.53334V12.533Z" fill="#606060"/>
<path d="M9.33334 15.333H2.66668C1.9303 15.333 1.33334 15.93 1.33334 16.6663V20.6663C1.33334 21.4027 1.9303 21.9997 2.66668 21.9997H9.33334C10.0697 21.9997 10.6667 21.4027 10.6667 20.6663V16.6663C10.6667 15.93 10.0697 15.333 9.33334 15.333Z" fill="#606060"/>
<path d="M21.3333 15.333H14.6667C13.9303 15.333 13.3333 15.93 13.3333 16.6663V20.6663C13.3333 21.4027 13.9303 21.9997 14.6667 21.9997H21.3333C22.0697 21.9997 22.6667 21.4027 22.6667 20.6663V16.6663C22.6667 15.93 22.0697 15.333 21.3333 15.333Z" fill="#606060"/>
<path d="M15.3333 2H8.66668C7.9303 2 7.33334 2.59695 7.33334 3.33333V7.33333C7.33334 8.06971 7.9303 8.66667 8.66668 8.66667H15.3333C16.0697 8.66667 16.6667 8.06971 16.6667 7.33333V3.33333C16.6667 2.59695 16.0697 2 15.3333 2Z" fill="#606060"/>
</g>
<defs>
<clipPath id="clip0_1510_5784">
<rect width="24" height="24" fill="white"/>
</clipPath>
</defs>
</svg>
