<svg width="28" height="29" viewBox="0 0 28 29" fill="none" xmlns="http://www.w3.org/2000/svg">
<path d="M5.25 12.4762V7.5H22.75V12.4762C22.75 16.1801 22.75 18.0321 21.611 19.1827C20.472 20.3333 18.6387 20.3333 14.9722 20.3333H13.0278C9.3613 20.3333 7.52806 20.3333 6.38903 19.1827C5.25 18.0321 5.25 16.1801 5.25 12.4762Z" stroke="#606060" stroke-width="1.5" stroke-linecap="round" stroke-linejoin="round"/>
<path d="M5.25 7.50004L6.09134 5.70517C6.74386 4.31315 7.07011 3.61714 7.73141 3.22526C8.39271 2.83337 9.24098 2.83337 10.9375 2.83337H17.0625C18.7591 2.83337 19.6072 2.83337 20.2686 3.22526C20.9299 3.61714 21.2562 4.31315 21.9086 5.70517L22.75 7.50004" stroke="#606060" stroke-width="1.5" stroke-linecap="round"/>
<path d="M12.25 11H15.75" stroke="#606060" stroke-width="1.5" stroke-linecap="round"/>
<path d="M14 23.25V26.1667M14 23.25H8.16671M14 23.25H19.8334M8.16671 23.25H5.25004C3.63921 23.25 2.33337 24.5559 2.33337 26.1667M8.16671 23.25V26.1667M19.8334 23.25H22.75C24.3609 23.25 25.6667 24.5559 25.6667 26.1667M19.8334 23.25V26.1667" stroke="#606060" stroke-width="1.5" stroke-linecap="round" stroke-linejoin="round"/>
</svg>
