<svg width="20" height="20" viewBox="0 0 20 20" fill="none" xmlns="http://www.w3.org/2000/svg">
<path d="M19.9999 16.9336C19.9999 17.1424 19.9209 17.3427 19.7803 17.4903C19.6396 17.638 19.4488 17.7209 19.2499 17.7209H14.15C13.9829 18.3748 13.615 18.9525 13.1034 19.3646C12.5917 19.7767 11.9648 20 11.32 20C10.6751 20 10.0482 19.7767 9.53654 19.3646C9.02488 18.9525 8.65701 18.3748 8.48997 17.7209H0.749997C0.551086 17.7209 0.360321 17.638 0.219669 17.4903C0.0790173 17.3427 0 17.1424 0 16.9336C0 16.7248 0.0790173 16.5246 0.219669 16.3769C0.360321 16.2293 0.551086 16.1463 0.749997 16.1463H8.48997C8.65701 15.4924 9.02488 14.9147 9.53654 14.5026C10.0482 14.0906 10.6751 13.8672 11.32 13.8672C11.9648 13.8672 12.5917 14.0906 13.1034 14.5026C13.615 14.9147 13.9829 15.4924 14.15 16.1463H19.2499C19.4488 16.1463 19.6396 16.2293 19.7803 16.3769C19.9209 16.5246 19.9999 16.7248 19.9999 16.9336ZM19.9999 3.06638C19.9999 3.27519 19.9209 3.47545 19.7803 3.6231C19.6396 3.77075 19.4488 3.8537 19.2499 3.8537H16.7999C16.6329 4.50756 16.265 5.08531 15.7534 5.49737C15.2417 5.90943 14.6148 6.13277 13.97 6.13277C13.3251 6.13277 12.6982 5.90943 12.1865 5.49737C11.6749 5.08531 11.307 4.50756 11.14 3.8537H0.749997C0.651506 3.8537 0.55398 3.83333 0.462986 3.79377C0.371992 3.7542 0.289313 3.69621 0.219669 3.6231C0.150025 3.54999 0.094781 3.4632 0.0570901 3.36768C0.0193992 3.27215 0 3.16978 0 3.06638C0 2.96299 0.0193992 2.86061 0.0570901 2.76509C0.094781 2.66957 0.150025 2.58278 0.219669 2.50967C0.289313 2.43656 0.371992 2.37857 0.462986 2.339C0.55398 2.29943 0.651506 2.27907 0.749997 2.27907H11.14C11.307 1.6252 11.6749 1.04745 12.1865 0.635398C12.6982 0.223342 13.3251 0 13.97 0C14.6148 0 15.2417 0.223342 15.7534 0.635398C16.265 1.04745 16.6329 1.6252 16.7999 2.27907H19.2499C19.3488 2.27766 19.4469 2.29706 19.5385 2.33612C19.6301 2.37519 19.7133 2.43313 19.7833 2.50652C19.8532 2.57991 19.9084 2.66727 19.9456 2.76343C19.9828 2.85959 20.0013 2.9626 19.9999 3.06638ZM19.9999 9.99475C20.0013 10.0985 19.9828 10.2015 19.9456 10.2977C19.9084 10.3939 19.8532 10.4812 19.7833 10.5546C19.7133 10.628 19.6301 10.6859 19.5385 10.725C19.4469 10.7641 19.3488 10.7835 19.2499 10.7821H7.54997C7.38293 11.4359 7.01506 12.0137 6.5034 12.4257C5.99174 12.8378 5.36487 13.0611 4.71998 13.0611C4.0751 13.0611 3.44823 12.8378 2.93657 12.4257C2.42491 12.0137 2.05704 11.4359 1.88999 10.7821H0.749997C0.551086 10.7821 0.360321 10.6991 0.219669 10.5515C0.0790173 10.4038 0 10.2036 0 9.99475C0 9.78594 0.0790173 9.58569 0.219669 9.43804C0.360321 9.29039 0.551086 9.20744 0.749997 9.20744H1.88999C2.05704 8.55357 2.42491 7.97582 2.93657 7.56377C3.44823 7.15171 4.0751 6.92837 4.71998 6.92837C5.36487 6.92837 5.99174 7.15171 6.5034 7.56377C7.01506 7.97582 7.38293 8.55357 7.54997 9.20744H19.2499C19.4488 9.20744 19.6396 9.29039 19.7803 9.43804C19.9209 9.58569 19.9999 9.78594 19.9999 9.99475Z" fill="#606060"/>
</svg>
