<svg width="50" height="49" viewBox="0 0 50 49" fill="none" xmlns="http://www.w3.org/2000/svg">
<rect width="50" height="49" rx="24.5" fill="#EFEFEF"/>
<path fill-rule="evenodd" clip-rule="evenodd" d="M40 12.0524V15.6047L34.1454 15.6045C37.2213 18.2403 39.1066 22.0979 39.103 26.301C39.0974 32.8101 34.5635 38.4832 28.099 40.07C21.6345 41.6567 14.8924 38.7513 11.7357 33.0184C8.57907 27.2856 9.81501 20.1912 14.7354 15.8001C15.4306 16.8802 16.4107 17.7575 17.5729 18.3401C16.3387 19.3138 15.3435 20.5451 14.6605 21.9436C13.9775 23.3421 13.6239 24.8722 13.6258 26.4217C13.7154 32.2449 18.5753 36.9196 24.5393 36.9189C30.0021 37.0068 34.6606 33.0728 35.3594 27.7814C35.8815 23.828 34.069 20.06 30.9057 17.878L30.9055 24.4856H27.2676V12.0524H40ZM20.9015 8.5C22.9106 8.5 24.5393 10.0905 24.5393 12.0524C24.5393 14.0143 22.9106 15.6047 20.9015 15.6047C18.8924 15.6047 17.2637 14.0143 17.2637 12.0524C17.2637 10.0905 18.8924 8.5 20.9015 8.5Z" fill="#19988B"/>
</svg>
