<svg width="24" height="25" viewBox="0 0 24 25" fill="none" xmlns="http://www.w3.org/2000/svg">
<path d="M15.6515 22.4132H13.5645C13.011 22.4132 12.4802 22.1933 12.0888 21.802C11.6975 21.4106 11.4776 20.8798 11.4776 20.3263C11.4776 19.7728 11.6975 19.2419 12.0888 18.8506C12.4802 18.4592 13.011 18.2393 13.5645 18.2393H15.6515V16.1523H13.5645C12.4575 16.1523 11.3959 16.5921 10.6131 17.3749C9.83038 18.1576 9.39063 19.2193 9.39062 20.3263C9.39063 21.4332 9.83038 22.4949 10.6131 23.2777C11.3959 24.0604 12.4575 24.5002 13.5645 24.5002H15.6515V22.4132ZM23.9993 20.3263C23.9993 21.4332 23.5596 22.4949 22.7768 23.2777C21.994 24.0604 20.9324 24.5002 19.8254 24.5002H17.7385V22.4132H19.8254C20.3789 22.4132 20.9097 22.1933 21.3011 21.802C21.6925 21.4106 21.9124 20.8798 21.9124 20.3263C21.9124 19.7728 21.6925 19.2419 21.3011 18.8506C20.9097 18.4592 20.3789 18.2393 19.8254 18.2393H17.7385V16.1523H19.8254C20.9324 16.1523 21.994 16.5921 22.7768 17.3749C23.5596 18.1576 23.9993 19.2193 23.9993 20.3263Z" fill="#606060"/>
<path d="M14.6087 19.2828H18.7826V21.3698H14.6087V19.2828ZM7.30435 20.3263C7.30644 19.9765 7.33786 19.6274 7.39826 19.2828H3.13043V17.822C3.13043 15.735 7.30435 14.5872 9.3913 14.5872C9.86357 14.5935 10.3346 14.6371 10.8 14.7176C11.6589 14.2894 12.6055 14.0662 13.5652 14.0654H18.7826V4.67412C18.781 4.12114 18.5606 3.59127 18.1695 3.20025C17.7785 2.80922 17.2486 2.58882 16.6957 2.58717H12.3339C12.1202 1.97719 11.7223 1.44869 11.1951 1.07477C10.668 0.700852 10.0376 0.5 9.3913 0.5C8.74499 0.5 8.11465 0.700852 7.58747 1.07477C7.0603 1.44869 6.66236 1.97719 6.4487 2.58717H2.08696C1.53397 2.58882 1.0041 2.80922 0.61308 3.20025C0.222057 3.59127 0.00165154 4.12114 0 4.67412L0 19.2828C0.00165154 19.8358 0.222057 20.3657 0.61308 20.7567C1.0041 21.1477 1.53397 21.3681 2.08696 21.3698H7.39826C7.33786 21.0252 7.30644 20.6761 7.30435 20.3263ZM9.3913 2.58717C9.59768 2.58717 9.79943 2.64837 9.97103 2.76303C10.1426 2.87768 10.2764 3.04065 10.3554 3.23132C10.4343 3.42199 10.455 3.6318 10.4147 3.83422C10.3745 4.03663 10.2751 4.22256 10.1292 4.3685C9.98322 4.51443 9.79729 4.61381 9.59488 4.65407C9.39246 4.69434 9.18265 4.67367 8.99198 4.59469C8.80131 4.51572 8.63834 4.38197 8.52368 4.21037C8.40903 4.03877 8.34783 3.83703 8.34783 3.63065C8.34865 3.35415 8.45885 3.08922 8.65437 2.89371C8.84988 2.6982 9.11481 2.58799 9.3913 2.58717ZM9.3913 6.76108C10.0104 6.76108 10.6157 6.94468 11.1305 7.28865C11.6453 7.63263 12.0465 8.12154 12.2834 8.69355C12.5204 9.26556 12.5824 9.89499 12.4616 10.5022C12.3408 11.1095 12.0427 11.6673 11.6049 12.1051C11.1671 12.5429 10.6093 12.841 10.002 12.9618C9.39478 13.0826 8.76535 13.0206 8.19334 12.7837C7.62133 12.5467 7.13242 12.1455 6.78844 11.6307C6.44447 11.1159 6.26087 10.5107 6.26087 9.89151C6.26032 9.48027 6.34092 9.07295 6.49804 8.6929C6.65517 8.31285 6.88573 7.96754 7.17653 7.67674C7.46732 7.38594 7.81264 7.15538 8.19269 6.99825C8.57274 6.84113 8.98005 6.76053 9.3913 6.76108Z" fill="#606060"/>
</svg>
