<svg width="18" height="20" viewBox="0 0 18 20" fill="none" xmlns="http://www.w3.org/2000/svg">
<path d="M13.3913 17.2176H17.2174V19.1306H13.3913V17.2176ZM6.69565 18.1741C6.69757 17.8534 6.72637 17.5335 6.78174 17.2176H2.86957V15.8785C2.86957 13.9654 6.69565 12.9132 8.6087 12.9132C9.04161 12.919 9.47338 12.959 9.9 13.0328C10.6874 12.6403 11.555 12.4357 12.4348 12.435H17.2174V3.82628C17.2159 3.31938 17.0138 2.83366 16.6554 2.47523C16.297 2.11679 15.8113 1.91475 15.3043 1.91324H11.3061C11.1102 1.35409 10.7454 0.869631 10.2622 0.526872C9.77897 0.184114 9.20115 0 8.6087 0C8.01624 0 7.43843 0.184114 6.95518 0.526872C6.47194 0.869631 6.10716 1.35409 5.9113 1.91324H1.91304C1.40614 1.91475 0.920427 2.11679 0.56199 2.47523C0.203552 2.83366 0.00151391 3.31938 0 3.82628L0 17.2176C0.00151391 17.7245 0.203552 18.2102 0.56199 18.5686C0.920427 18.9271 1.40614 19.1291 1.91304 19.1306H6.78174C6.72637 18.8148 6.69757 18.4948 6.69565 18.1741ZM8.6087 1.91324C8.79788 1.91324 8.98281 1.96934 9.14011 2.07444C9.29741 2.17954 9.42001 2.32893 9.49241 2.50371C9.5648 2.6785 9.58375 2.87082 9.54684 3.05637C9.50993 3.24191 9.41883 3.41235 9.28506 3.54612C9.15129 3.67989 8.98085 3.77099 8.7953 3.8079C8.60976 3.84481 8.41743 3.82587 8.24265 3.75347C8.06787 3.68107 7.91848 3.55847 7.81338 3.40117C7.70827 3.24387 7.65217 3.05894 7.65217 2.86976C7.65293 2.61631 7.75395 2.37345 7.93317 2.19423C8.11239 2.01501 8.35524 1.91399 8.6087 1.91324ZM8.6087 5.73932C9.17624 5.73932 9.73104 5.90762 10.2029 6.22293C10.6748 6.53825 11.0426 6.98641 11.2598 7.51075C11.477 8.0351 11.5338 8.61207 11.4231 9.16871C11.3124 9.72535 11.0391 10.2367 10.6378 10.638C10.2365 11.0393 9.72516 11.3126 9.16852 11.4233C8.61188 11.534 8.03491 11.4772 7.51056 11.26C6.98622 11.0428 6.53805 10.675 6.22274 10.2031C5.90743 9.73124 5.73913 9.17644 5.73913 8.60889C5.73863 8.23191 5.81251 7.85854 5.95654 7.51016C6.10057 7.16178 6.31192 6.84524 6.57848 6.57868C6.84505 6.31211 7.16159 6.10076 7.50996 5.95673C7.85834 5.8127 8.23172 5.73882 8.6087 5.73932Z" fill="#19988B"/>
</svg>
