<svg width="22" height="21" viewBox="0 0 22 21" fill="none" xmlns="http://www.w3.org/2000/svg">
<path d="M8.9487 1.3455C10.4398 1.3442 11.8978 1.7646 13.1382 2.55352C14.3787 3.34243 15.3458 4.46442 15.9174 5.77754C16.489 7.09067 16.6392 8.53592 16.3491 9.93048C16.0591 11.325 15.3417 12.6062 14.2879 13.612C13.234 14.6178 11.891 15.3029 10.4286 15.5807C8.96629 15.8586 7.45039 15.7166 6.07268 15.1729C4.69497 14.6291 3.51736 13.7079 2.68881 12.5259C1.86027 11.3439 1.41803 9.95412 1.41803 8.53241C1.42707 6.63011 2.22316 4.80809 3.63328 3.46233C5.04341 2.11658 6.9536 1.35585 8.9487 1.3455ZM8.9487 0C7.17881 0 5.44868 0.500417 3.97707 1.43797C2.50547 2.37552 1.35849 3.7081 0.681183 5.2672C0.00387745 6.82629 -0.173337 8.54187 0.171951 10.197C0.517238 11.8521 1.36952 13.3725 2.62102 14.5657C3.87251 15.759 5.46702 16.5716 7.2029 16.9009C8.93877 17.2301 10.7381 17.0611 12.3732 16.4153C14.0084 15.7695 15.406 14.6759 16.3893 13.2728C17.3726 11.8696 17.8974 10.22 17.8974 8.53241C17.8974 6.26947 16.9546 4.09922 15.2764 2.49908C13.5982 0.898947 11.322 0 8.9487 0Z" fill="#919191"/>
<path d="M21.7997 19.8808L16.7265 15.0107L15.749 15.9362L20.8222 20.8062C20.886 20.8674 20.9617 20.916 21.0452 20.9493C21.1286 20.9826 21.2181 20.9999 21.3085 21.0002C21.399 21.0005 21.4886 20.9838 21.5723 20.9511C21.656 20.9184 21.7321 20.8703 21.7963 20.8095C21.8605 20.7487 21.9115 20.6765 21.9464 20.597C21.9813 20.5174 21.9994 20.4321 21.9997 20.3458C22 20.2596 21.9825 20.1741 21.9482 20.0943C21.9139 20.0145 21.8634 19.942 21.7997 19.8808Z" fill="#919191"/>
</svg>
