<svg width="19" height="20" viewBox="0 0 19 20" fill="none" xmlns="http://www.w3.org/2000/svg">
<path d="M14.3097 0H4.45711C3.27501 0 2.14133 0.541022 1.30546 1.50405C0.469587 2.46707 0 3.77321 0 5.13513V14.8649C0 15.5392 0.115287 16.207 0.339277 16.83C0.563268 17.453 0.891576 18.0191 1.30546 18.496C2.14133 19.459 3.27501 20 4.45711 20H14.3097C15.491 19.9971 16.6232 19.4552 17.4586 18.4928C18.2939 17.5304 18.7643 16.2259 18.7668 14.8649V5.13513C18.7643 3.77409 18.2939 2.46961 17.4586 1.5072C16.6232 0.544795 15.491 0.00285635 14.3097 0ZM10.8847 8.99459C10.4231 9.29793 9.90077 9.45746 9.36931 9.45746C8.83785 9.45746 8.31556 9.29793 7.85389 8.99459L1.42627 4.74595C1.50939 3.88681 1.86449 3.09313 2.42365 2.51672C2.98282 1.94031 3.70679 1.62162 4.45711 1.62162H14.3097C15.0594 1.62399 15.7823 1.94349 16.341 2.51946C16.8997 3.09543 17.2554 3.88774 17.3405 4.74595L10.8847 8.99459Z" fill="#19988B"/>
</svg>
