<?xml version="1.0" encoding="UTF-8"?>
<svg version="1.1" xmlns="http://www.w3.org/2000/svg" width="512" height="512">
<path d="M0 0 C0.68451455 -0.00297112 1.3690291 -0.00594224 2.07428652 -0.0090034 C4.36159435 -0.01765528 6.64884961 -0.0191957 8.93617249 -0.02069092 C10.57919933 -0.0253218 12.2222251 -0.03034682 13.86524963 -0.03573608 C18.32649469 -0.04884123 22.78772471 -0.05530205 27.24898601 -0.05974674 C30.0410086 -0.06268218 32.83302714 -0.06678801 35.62504768 -0.07125092 C44.37413416 -0.08492457 53.1232113 -0.09459031 61.87230772 -0.09845281 C71.94559705 -0.10292506 82.01875012 -0.12043473 92.09199804 -0.1494534 C99.89352979 -0.17114098 107.69502341 -0.18116095 115.49658495 -0.18249393 C120.14828871 -0.18353745 124.79986437 -0.1893474 129.45153618 -0.20731354 C133.83547722 -0.22391565 138.21919557 -0.22589149 142.60315704 -0.21717453 C144.20178134 -0.21641044 145.80041822 -0.22066267 147.39901161 -0.23063278 C169.93497383 -0.36280473 187.95234576 5.31963376 204.41744137 21.09214497 C206.31677353 22.9700279 208.20730007 24.85453213 210.0916748 26.74720764 C211.15364766 27.80284432 212.21626074 28.85783723 213.27945 29.91224879 C216.17238675 32.78506282 219.05605635 35.66701885 221.93813264 38.55072272 C225.0581679 41.66930425 228.18676237 44.77928049 231.31414795 47.89048767 C238.13565432 54.68000127 244.94610963 61.48052784 251.75449634 68.28319383 C256.00897415 72.53391132 260.26597467 76.78209606 264.52353096 81.02972984 C276.32316513 92.80244919 288.12060185 104.57735634 299.90800381 116.36232471 C300.66081971 117.11498505 301.41363562 117.86764538 302.18926412 118.64311359 C303.71517754 120.16873597 305.24108813 121.69436119 306.7669959 123.21998922 C307.52439644 123.9772469 308.28179698 124.73450459 309.06214905 125.51470947 C309.82047667 126.27289743 310.57880429 127.03108538 311.36011154 127.81224873 C323.66184898 140.11084747 335.98024707 152.39260993 348.30610549 164.66702966 C360.97581721 177.28428972 373.63239199 189.91459994 386.27562481 202.55839461 C393.36878332 209.65130064 400.46731851 216.73862764 407.58018303 223.81177711 C413.6324843 229.83045437 419.67255706 235.86107886 425.69714784 241.90749887 C428.76941023 244.99019003 431.84699821 248.06700471 434.94015503 251.12874222 C437.77463393 253.93470942 440.59229804 256.75651457 443.39774931 259.59149548 C444.41224621 260.61101091 445.43262221 261.62471902 446.4595403 262.63172195 C453.80834873 269.84724839 458.26361954 276.40065893 459.51454163 286.76544189 C457.33107511 303.60932644 441.63294386 314.74297769 430.20960999 326.18487549 C428.50681705 327.89394339 426.80421082 329.60319732 425.10177612 331.31262207 C420.02289324 336.41060162 414.93981398 341.50438504 409.85583982 346.59728616 C407.93749084 348.51915306 406.01945586 350.44133316 404.10143657 352.36352908 C395.63386327 360.84953794 387.16494929 369.33420615 378.69200802 377.81485558 C376.62690219 379.88187085 374.56180186 381.9488916 372.49671936 384.01593018 C371.98354039 384.52959289 371.47036141 385.0432556 370.94163156 385.57248385 C362.6118444 393.9105879 354.29062379 402.25718716 345.97290342 410.60732679 C337.41458037 419.19873281 328.84873377 427.78257893 320.27545077 436.35905707 C315.46924369 441.16742601 310.66635977 445.97901339 305.8718853 450.79908371 C301.36701996 455.32720104 296.85275952 459.84573469 292.33111382 464.35709381 C290.67485965 466.01285202 289.0220177 467.67203167 287.37288284 469.33488083 C285.11915162 471.6063011 282.85338399 473.86500568 280.58422852 476.1210022 C279.61285372 477.10883086 279.61285372 477.10883086 278.6218552 478.11661565 C272.66438608 483.99116292 266.41555043 487.5956961 258.01454163 488.45294189 C246.58350712 487.54571693 239.79006282 481.86926343 232.00666809 473.93876648 C230.93944257 472.87746732 229.87068949 471.81770245 228.80055833 470.75933319 C225.88147541 467.86354488 222.98449541 464.9465066 220.09084177 462.02533758 C216.95967071 458.87208517 213.80828477 455.73914589 210.65943909 452.6035614 C204.50040546 446.46406404 198.36020749 440.30605708 192.22630426 434.14146303 C185.07671546 426.95741493 177.9090068 419.79155946 170.7406297 412.62626696 C157.94663171 399.83645717 145.16978086 387.02965289 132.40223694 374.21343994 C120.02492085 361.78896222 107.63473475 349.37750709 95.23036194 336.9800415 C79.55196161 321.31031479 63.88506985 305.62917263 48.22760241 289.93852959 C43.24206477 284.94309941 38.25246628 279.95174753 33.26148224 274.96175957 C27.17456826 268.87560482 21.09521644 262.78200779 15.02509996 256.67909812 C11.93042408 253.56800111 8.8327493 250.460066 5.72629547 247.3607254 C2.87787643 244.51861404 0.0389899 241.66731724 -2.79283378 238.80867303 C-3.81406826 237.7809343 -4.83860334 236.75646147 -5.86689785 235.73578661 C-13.89086692 227.76531978 -20.74589702 219.35445825 -24.73545837 208.64044189 C-25.11315369 207.66075439 -25.490849 206.68106689 -25.87998962 205.67169189 C-28.93516206 195.32758748 -29.21636756 185.2105637 -29.19761658 174.52081299 C-29.20197187 172.86878735 -29.20715773 171.21676372 -29.21310425 169.56474304 C-29.2264132 165.10829763 -29.22708233 160.65193744 -29.22454095 156.19547606 C-29.22346635 152.46528787 -29.22836671 148.73511659 -29.23314637 145.00493205 C-29.24421211 136.20340927 -29.24469461 127.40192919 -29.2386322 118.60040283 C-29.2325855 109.53725788 -29.24492783 100.4742679 -29.26620227 91.41114938 C-29.28383823 83.60956759 -29.28981674 75.80803506 -29.28656453 68.00643408 C-29.28475574 63.35554825 -29.28734802 58.70477316 -29.30127907 54.05390549 C-29.31388641 49.6821979 -29.31188594 45.31073181 -29.29886818 40.93902779 C-29.2965097 39.33991602 -29.29921084 37.74078709 -29.3074913 36.14169502 C-29.35742878 25.74431782 -29.07035218 16.26053079 -22.50889587 7.71075439 C-16.13589572 1.40054242 -8.64202006 0.0210116 0 0 Z M40.70204163 69.95294189 C35.97404067 76.22828861 32.73502924 83.2445905 32.07704163 91.14044189 C32.01387756 91.84298096 31.9507135 92.54552002 31.88563538 93.26934814 C31.30440578 104.95018805 35.52279551 115.36327479 43.07704163 124.14044189 C49.99083287 131.62549979 59.29540928 136.60038016 69.51063538 137.41387939 C82.38249382 137.87877722 92.8794847 135.05369836 102.85438538 126.44122314 C111.0186271 117.99001334 116.03918579 106.95146133 116.07704163 95.14044189 C115.25325271 82.24635456 110.12934989 72.06606208 100.72547913 63.26934814 C81.96908912 48.19230898 56.02996195 51.93839347 40.70204163 69.95294189 Z " fill="#000000" transform="translate(40.92295837402344,11.85955810546875)"/>
</svg>
