<svg width="19" height="24" viewBox="0 0 19 24" fill="none" xmlns="http://www.w3.org/2000/svg">
<path d="M6.69784 5.33333C6.69784 4.97971 6.84186 4.64057 7.0982 4.39052C7.35454 4.14048 7.70222 4 8.06475 4C8.42727 4 8.77495 4.14048 9.0313 4.39052C9.28764 4.64057 9.43165 4.97971 9.43165 5.33333V11.2933L11.0856 11.4667L17.8381 14.3867C18.5626 14.7067 19 15.4133 19 16.1867V22C18.959 23.0933 18.0705 23.96 16.9496 24H8.06475C7.54532 24 7.05324 23.8 6.69784 23.4267L0 17.8267L1.01151 16.8C1.27122 16.52 1.64029 16.3733 2.02302 16.3733H2.32374L6.69784 18.6667V5.33333ZM8.06475 0C9.51485 0 10.9056 0.561903 11.9309 1.5621C12.9563 2.56229 13.5324 3.91885 13.5324 5.33333C13.5324 7.33333 12.4388 9.02667 10.7986 9.94667V8.32C11.6324 7.58667 12.1655 6.52 12.1655 5.33333C12.1655 4.27247 11.7334 3.25505 10.9644 2.50491C10.1954 1.75476 9.15233 1.33333 8.06475 1.33333C6.97717 1.33333 5.93414 1.75476 5.1651 2.50491C4.39607 3.25505 3.96403 4.27247 3.96403 5.33333C3.96403 6.52 4.49712 7.58667 5.33094 8.32V9.94667C3.69065 9.02667 2.59712 7.33333 2.59712 5.33333C2.59712 3.91885 3.17317 2.56229 4.19855 1.5621C5.22393 0.561903 6.61464 0 8.06475 0Z" fill="#C37C5A"/>
</svg>
