<svg width="26" height="26" viewBox="0 0 26 26" fill="none" xmlns="http://www.w3.org/2000/svg">
<path d="M23.0002 5.2L22.1739 17.2301C21.9627 20.3037 21.8572 21.8405 21.0012 22.9455C20.5779 23.4917 20.0331 23.9528 19.4011 24.2992C18.123 25 16.4122 25 12.9904 25C9.56434 25 7.85125 25 6.57225 24.2979C5.93992 23.9508 5.39485 23.489 4.97176 22.9418C4.11602 21.8351 4.01278 20.2961 3.80633 17.2182L3.00018 5.2" stroke="#19988B" stroke-width="2" stroke-linecap="round"/>
<path d="M1 5.2H25M18.4076 5.2L17.4975 3.51008C16.8928 2.38751 16.5904 1.82622 16.0689 1.47617C15.9533 1.39852 15.8308 1.32945 15.7027 1.26964C15.1252 1 14.4321 1 13.046 1C11.6251 1 10.9147 1 10.3276 1.28094C10.1975 1.34321 10.0733 1.41508 9.95639 1.4958C9.42885 1.86004 9.13417 2.44186 8.54481 3.60551L7.73723 5.2" stroke="#19988B" stroke-width="2" stroke-linecap="round"/>
<path d="M9.66656 18.4V11.2" stroke="#19988B" stroke-width="2" stroke-linecap="round"/>
<path d="M16.3334 18.4V11.2" stroke="#19988B" stroke-width="2" stroke-linecap="round"/>
</svg>
