<svg width="24" height="27" viewBox="0 0 24 27" fill="none" xmlns="http://www.w3.org/2000/svg">
<path d="M5.3726 17.6779C3.64343 18.6887 -0.890337 20.7529 1.87103 23.3359C3.21994 24.5975 4.72227 25.4999 6.61108 25.4999H17.3889C19.2778 25.4999 20.7801 24.5975 22.129 23.3359C24.8903 20.7529 20.3566 18.6887 18.6274 17.6779C14.5726 15.3073 9.42747 15.3073 5.3726 17.6779Z" stroke="#606060" stroke-width="1.5" stroke-linecap="round" stroke-linejoin="round"/>
<path d="M17.5 6.9C17.5 9.88234 15.0376 12.3 12 12.3C8.96244 12.3 6.5 9.88234 6.5 6.9C6.5 3.91766 8.96244 1.5 12 1.5C15.0376 1.5 17.5 3.91766 17.5 6.9Z" stroke="#606060" stroke-width="1.5"/>
</svg>
