<svg width="24" height="25" viewBox="0 0 24 25" fill="none" xmlns="http://www.w3.org/2000/svg">
<path fill-rule="evenodd" clip-rule="evenodd" d="M0.401777 7.55C-0.246207 8.9024 -0.0182127 10.4852 0.437777 13.6496L0.771368 15.974C1.35575 20.0396 1.64855 22.0712 3.05851 23.2856C4.46848 24.5 6.53603 24.5 10.6723 24.5H13.3267C17.463 24.5 19.5305 24.5 20.9405 23.2856C22.3505 22.0712 22.6433 20.0396 23.2276 15.974L23.5624 13.6496C24.0184 10.4852 24.2464 8.9024 23.5972 7.55C22.948 6.1976 21.5681 5.3744 18.8069 3.7304L17.145 2.7404C14.6394 1.2464 13.3843 0.5 11.9995 0.5C10.6147 0.5 9.36077 1.2464 6.85402 2.7404L5.19206 3.7304C2.43213 5.3744 1.05096 6.1976 0.401777 7.55ZM7.49961 19.7C7.49961 19.4613 7.59443 19.2324 7.76321 19.0636C7.93199 18.8948 8.1609 18.8 8.39959 18.8H15.5994C15.8381 18.8 16.067 18.8948 16.2358 19.0636C16.4046 19.2324 16.4994 19.4613 16.4994 19.7C16.4994 19.9387 16.4046 20.1676 16.2358 20.3364C16.067 20.5052 15.8381 20.6 15.5994 20.6H8.39959C8.1609 20.6 7.93199 20.5052 7.76321 20.3364C7.59443 20.1676 7.49961 19.9387 7.49961 19.7Z" fill="#19988B"/>
</svg>
