<svg width="26" height="27" viewBox="0 0 26 27" fill="none" xmlns="http://www.w3.org/2000/svg">
<path d="M13.6 25.4999H6.50904C4.65459 25.4999 3.17957 24.5975 1.85519 23.3358C-0.855959 20.7528 3.59536 18.6887 5.29308 17.6778C7.99239 16.0706 11.1838 15.553 14.2 16.1253" stroke="#606060" stroke-width="1.5" stroke-linecap="round" stroke-linejoin="round"/>
<path d="M17.2 6.9C17.2 9.88234 14.7824 12.3 11.8 12.3C8.81769 12.3 6.40002 9.88234 6.40002 6.9C6.40002 3.91766 8.81769 1.5 11.8 1.5C14.7824 1.5 17.2 3.91766 17.2 6.9Z" stroke="#606060" stroke-width="1.5"/>
<path d="M21.0292 16.5932L21.8739 18.2966C21.9891 18.5336 22.2962 18.7611 22.5554 18.8047L24.0865 19.0611C25.0655 19.2256 25.2959 19.9418 24.5903 20.6483L23.4001 21.8485C23.1986 22.0517 23.0882 22.4437 23.1506 22.7243L23.4913 24.2099C23.7601 25.3858 23.141 25.8407 22.1091 25.2261L20.674 24.3697C20.4148 24.2147 19.9877 24.2147 19.7237 24.3697L18.2887 25.2261C17.2616 25.8407 16.6377 25.381 16.9064 24.2099L17.2472 22.7243C17.3096 22.4437 17.1992 22.0517 16.9976 21.8485L15.8073 20.6483C15.1066 19.9418 15.3322 19.2256 16.3113 19.0611L17.8423 18.8047C18.0967 18.7611 18.4039 18.5336 18.5191 18.2966L19.3637 16.5932C19.8245 15.6688 20.5732 15.6688 21.0292 16.5932Z" stroke="#606060" stroke-width="1.5" stroke-linecap="round" stroke-linejoin="round"/>
</svg>
