<svg width="40" height="40" viewBox="0 0 40 40" fill="none" xmlns="http://www.w3.org/2000/svg">
<rect width="40" height="40" rx="8" fill="white"/>
<path d="M25.8997 10.1401L27.2197 8.82013C28.3133 7.72662 30.0863 7.72662 31.1797 8.82013C32.2732 9.91365 32.2732 11.6866 31.1797 12.7801L29.8597 14.1001M25.8997 10.1401L17.0206 19.0192C16.3439 19.696 15.8639 20.5437 15.6318 21.4721L14.6665 25.3333L18.5277 24.368C19.4561 24.136 20.3038 23.6559 20.9806 22.9792L29.8597 14.1001M25.8997 10.1401L29.8597 14.1001" stroke="#19988B" stroke-width="2" stroke-linejoin="round"/>
<path d="M29.3332 21.9998C29.3332 26.3832 29.3332 28.5748 28.1227 30.05C27.9011 30.32 27.6535 30.5676 27.3834 30.7892C25.9083 31.9998 23.7166 31.9998 19.3332 31.9998H18.6667C13.6384 31.9998 11.1242 31.9998 9.56212 30.4377C8.00004 28.8757 8 26.3614 8 21.3332V20.6665C8 16.2832 8 14.0916 9.21059 12.6164C9.43223 12.3464 9.67987 12.0987 9.94992 11.8771C11.4251 10.6665 13.6167 10.6665 18 10.6665" stroke="#19988B" stroke-width="2" stroke-linecap="round" stroke-linejoin="round"/>
</svg>
