<svg width="40" height="40" viewBox="0 0 40 40" fill="none" xmlns="http://www.w3.org/2000/svg">
<path d="M29.1668 12.2002L28.4094 24.2303C28.2158 27.3039 28.1191 28.8407 27.3345 29.9457C26.9464 30.4919 26.447 30.953 25.8677 31.2994C24.6961 32.0002 23.1278 32.0002 19.9912 32.0002C16.8506 32.0002 15.2803 32.0002 14.1079 31.2981C13.5283 30.951 13.0286 30.4892 12.6408 29.942C11.8563 28.8353 11.7617 27.2963 11.5725 24.2184L10.8335 12.2002" stroke="#19988B" stroke-width="2" stroke-linecap="round"/>
<path d="M9 12.2H31M24.957 12.2L24.1227 10.5101C23.5684 9.38751 23.2912 8.82622 22.8132 8.47617C22.7072 8.39852 22.5949 8.32945 22.4774 8.26964C21.9481 8 21.3128 8 20.0422 8C18.7396 8 18.0884 8 17.5503 8.28094C17.431 8.34321 17.3172 8.41508 17.21 8.4958C16.7264 8.86004 16.4563 9.44186 15.9161 10.6055L15.1758 12.2" stroke="#19988B" stroke-width="2" stroke-linecap="round"/>
<path d="M16.9443 25.4002V18.2002" stroke="#19988B" stroke-width="2" stroke-linecap="round"/>
<path d="M23.0557 25.4002V18.2002" stroke="#19988B" stroke-width="2" stroke-linecap="round"/>
</svg>
